<svg width="144" height="150" viewBox="0 0 144 150" fill="none" xmlns="http://www.w3.org/2000/svg">
<path d="M86.3293 89.0563C86.3293 89.0563 84.4915 98.6156 73.3456 104.748C62.1985 110.88 50.8169 114.176 47.2159 111.155C43.6149 108.134 41.9111 105.039 42.7733 98.0472C43.6355 91.0553 42.1237 84.4745 49.2136 81.9806C56.3034 79.4867 74.6435 80.1917 80.7358 80.7369C86.8281 81.2834 87.778 85.1176 86.3293 89.0563Z" fill="#E75D85"/>
<path d="M76.5695 85.6151C76.1467 85.4926 61.5842 80.4546 59.553 83.0077C57.5218 85.5609 58.589 86.0004 63.9789 86.6513C69.3688 87.3021 76.5695 85.6151 76.5695 85.6151Z" fill="#E77495"/>
<path d="M53.9971 108.986C50.7995 106.23 49.3019 103.391 50.1422 96.9375C50.9825 90.4844 49.6911 84.4294 56.0695 82.0709C59.6061 80.764 66.2319 80.3348 72.3642 80.2897C64.4624 80.0615 54.1298 80.2523 49.2117 81.9819C42.1218 84.4758 43.6336 91.0566 42.7714 98.0485C41.9091 105.04 43.6129 108.135 47.2139 111.156C50.2259 113.683 58.6859 111.787 67.8959 107.511C61.5368 110.017 56.1584 110.847 53.9971 108.986Z" fill="#E74474"/>
<path d="M80.8861 87.386C77.4398 98.0975 74.732 103.298 68.8485 104.716C62.9649 106.133 59.2969 108.714 56.2978 106.935C53.2987 105.155 52.4661 101.791 52.6775 99.1208C52.8889 96.4504 53.5513 95.1834 58.2285 95.4463C62.9057 95.7093 69.2892 95.8665 72.1131 93.8224C74.9395 91.7783 80.8861 87.386 80.8861 87.386Z" fill="#E77495"/>
<path d="M79.3727 86.9477C79.3727 86.9477 72.1024 92.2577 69.0801 92.9433C66.0565 93.629 56.4121 93.9576 55.9275 92.6469C55.4429 91.3362 53.926 89.9855 56.9148 88.3796C59.9023 86.7737 66.4586 89.7135 68.5555 89.0188C70.6511 88.3242 79.3727 86.9477 79.3727 86.9477Z" fill="#E77495"/>
<path d="M56.1449 83.5502C55.0958 84.7721 53.4229 84.3545 53.8006 85.4204C54.1782 86.4862 55.8859 86.1524 55.9606 86.9373C56.0354 87.7235 56.8937 87.8756 57.2765 86.9193C57.658 85.9642 57.3706 82.1222 56.1449 83.5502Z" fill="#E77495"/>
<path d="M54.8079 93.3455C54.4947 94.6008 53.0061 95.9579 52.3423 95.3187C51.6786 94.6807 52.1194 93.2153 51.9041 92.0064C51.6889 90.7974 51.136 88.4067 52.2405 87.8357C53.3464 87.2635 55.121 92.0863 54.8079 93.3455Z" fill="#E77495"/>
<path d="M89.346 92.2191C89.346 92.2191 94.6586 44.9422 70.1695 33.1726C45.6804 21.403 36.0412 26.6498 36.7037 35.6201C37.3661 44.5903 46.8983 45.816 45.9227 51.2987C44.9471 56.7814 35.0862 68.9441 41.5407 76.5044C47.9964 84.0673 89.346 92.2191 89.346 92.2191Z" fill="#E75D85"/>
<path d="M41.5391 76.507C42.8989 78.1 45.809 79.7175 49.5518 81.2809C49.8456 80.3877 49.5789 79.2239 48.281 77.7044C41.8252 70.1441 51.6874 57.9814 52.663 52.4987C53.6387 47.016 44.1065 45.7891 43.444 36.8188C43.0252 31.1402 46.7357 26.9566 55.7253 27.6333C50.9527 26.3792 47.1533 26.1112 44.2418 26.5816C44.2392 26.5816 44.2367 26.5829 44.2328 26.5829C43.7082 26.6679 43.212 26.7775 42.7442 26.9089C42.7403 26.9102 42.7352 26.9115 42.7313 26.9128C42.2634 27.0456 41.8252 27.2002 41.4141 27.3755C41.4115 27.3768 41.409 27.3781 41.4064 27.3781C41.2028 27.4657 41.0043 27.5585 40.8148 27.6565C40.8096 27.6591 40.8058 27.6616 40.8019 27.6629C40.4256 27.8575 40.0763 28.0715 39.7541 28.3035C39.7412 28.3125 39.7296 28.3215 39.7167 28.3305C39.4048 28.5574 39.1174 28.8022 38.8545 29.0626C38.839 29.078 38.8236 29.0948 38.8068 29.1103C38.5516 29.368 38.3209 29.6413 38.1121 29.9274C38.0967 29.9493 38.0812 29.9699 38.0657 29.9918C37.9639 30.1362 37.866 30.2831 37.7757 30.4339C37.7744 30.4365 37.7732 30.439 37.7719 30.4416C37.6842 30.5872 37.6043 30.7381 37.527 30.8902C37.5141 30.9159 37.4999 30.9417 37.4883 30.9675C37.4123 31.1221 37.3414 31.2794 37.277 31.4392C37.2692 31.4572 37.2628 31.4766 37.2551 31.4959C37.1971 31.6428 37.1429 31.7923 37.094 31.9444C37.0849 31.9715 37.0759 31.9985 37.0669 32.0269C37.0153 32.1906 36.9689 32.3568 36.9277 32.527C36.92 32.5579 36.9135 32.5888 36.907 32.6197C36.871 32.7718 36.84 32.9265 36.813 33.0837C36.8078 33.1108 36.8027 33.1366 36.7988 33.1624C36.7705 33.3351 36.7473 33.5116 36.7279 33.6895C36.7241 33.7282 36.7202 33.7668 36.7163 33.8055C36.7009 33.9717 36.688 34.138 36.6815 34.3081C36.6802 34.3261 36.679 34.3455 36.679 34.3635C36.6712 34.5465 36.6712 34.7309 36.6725 34.9178C36.6725 34.9616 36.6738 35.0054 36.6751 35.0492C36.6802 35.2387 36.688 35.4281 36.7021 35.6214C36.7846 36.7427 37.0063 37.7429 37.3285 38.645C37.4896 39.0961 37.6765 39.524 37.8827 39.9287C37.9858 40.1311 38.0941 40.3295 38.2075 40.5216C38.6599 41.291 39.1831 41.9805 39.7425 42.6133C40.5802 43.5632 41.4966 44.3855 42.3627 45.1601C42.9401 45.6756 43.4943 46.1705 43.9892 46.668C44.1129 46.7918 44.2328 46.9167 44.3488 47.0418C45.5049 48.2906 46.2266 49.5872 45.9212 51.3014C44.9455 56.7841 35.0847 68.9467 41.5391 76.507Z" fill="#E74474"/>
<path d="M86.9253 84.481C86.9253 84.481 54.876 54.9216 51.9671 60.7265C49.0582 66.5314 48.1663 73.3493 54.1014 77.4543C60.0365 81.5605 75.5785 87.2648 80.0932 86.7029C84.6067 86.141 86.9253 84.481 86.9253 84.481Z" fill="#E77495"/>
<path d="M86.6981 78.6645C86.6981 78.6645 58.9973 60.7988 57.2857 57.0212C55.4401 52.9472 59.5463 49.6465 57.5009 45.7955C55.4555 41.9445 58.0693 41.755 62.1394 42.0411C66.2095 42.3285 84.9375 65.927 86.6981 78.6645Z" fill="#E77495"/>
<path d="M85.4448 65.606C85.4448 65.606 82.8143 41.3541 71.8064 36.5661C60.7985 31.7781 57.2491 28.7493 56.0028 32.8877C54.7565 37.0262 58.8073 37.9632 62.9058 38.9092C67.0055 39.8552 78.3421 52.6352 79.3835 56.1563C80.4248 59.6761 85.4448 65.606 85.4448 65.606Z" fill="#E77495"/>
<path d="M52.6736 29.4028C49.6719 30.3037 46.9228 29.448 46.4176 32.4677C45.9111 35.4874 49.7325 38.2584 48.7684 39.6619C47.8044 41.0642 50.2454 43.4524 52.2856 41.7718C54.3258 40.0911 54.969 36.8291 54.3658 34.8559C53.7613 32.8827 54.3478 28.9002 52.6736 29.4028Z" fill="#E77495"/>
<path d="M54.1871 42.5527C52.5748 43.3401 50.9947 43.5541 51.2821 44.5981C51.5695 45.642 54.3109 46.4836 54.209 47.5314C54.1072 48.5793 54.8677 49.4247 55.4631 48.8203C56.0585 48.2158 56.2158 41.5616 54.1871 42.5527Z" fill="#E77495"/>
<path d="M56.0668 38.3563C55.3579 39.1167 54.2908 40.2238 55.1594 40.7961C56.0281 41.3683 57.701 40.8669 58.3351 40.18C58.9679 39.493 56.9535 37.4052 56.0668 38.3563Z" fill="#E77495"/>
<path d="M55.3531 57.6049C53.7665 59.2249 52.2599 58.6797 52.3798 57.4631C52.4996 56.2464 54.5218 54.5955 54.2872 53.6263C54.0526 52.6571 54.1132 52.126 54.777 51.6247C55.4407 51.1246 56.4498 56.4862 55.3531 57.6049Z" fill="#E77495"/>
<path d="M84.3752 90.6969C84.3752 90.6969 79.2972 97.8808 72.8981 103.233C64.4266 110.318 56.3444 115.359 58.5019 110.801C60.5279 106.524 63.1932 102.485 69.841 94.8457C75.1974 88.6902 78.9118 83.6444 81.5745 82.7693C83.9473 81.9883 86.3793 84.1767 87.0044 85.0286C87.6101 85.8535 86.2517 88.2327 84.3752 90.6969Z" fill="#FF7BA2"/>
<path d="M84.3834 87.667C84.3718 87.5523 84.3422 83.0981 82.8446 84.4745C81.2322 85.9554 81.1987 86.3537 81.8251 87.2881C82.4347 88.1954 84.3834 87.667 84.3834 87.667Z" fill="#FF95B3"/>
<path d="M63.466 107.792C65.0835 104.244 67.2307 100.861 72.685 94.325C77.1985 88.9171 80.3948 84.4152 82.7109 83.5362C83.8953 83.0864 85.1029 83.4782 86.018 84.0247C84.9547 83.1457 83.2496 82.2165 81.5754 82.7668C78.9127 83.6419 75.1983 88.6877 69.8419 94.8432C63.1941 102.482 60.5275 106.521 58.5027 110.799C56.7074 114.591 62.2597 111.585 69.2722 106.154C65.0423 109.181 62.3203 110.303 63.466 107.792Z" fill="#FF608E"/>
<path d="M84.269 89.171C78.1793 97.0741 74.2677 101.791 71.7545 103.061C68.9809 104.462 65.5385 107.497 66.2254 105.244C66.8956 103.043 69.5455 99.2755 71.7158 96.5766C73.7226 94.0802 74.7549 93.0053 75.6648 93.5801C76.5425 94.1343 77.8133 94.6924 79.5545 93.2102C81.172 91.8325 84.269 89.171 84.269 89.171Z" fill="#FF95B3"/>
<path d="M84.2288 88.7638C84.2288 88.7638 80.4023 91.9923 79.4537 92.3042C78.4639 92.6303 76.2149 92.1766 76.9315 91.0592C77.6274 89.974 78.1146 88.7986 79.6238 87.8732C81.0402 87.0058 80.7039 89.6608 81.4411 89.3283C82.1551 89.0074 84.2288 88.7638 84.2288 88.7638Z" fill="#FF95B3"/>
<path d="M82.0027 84.4887C81.2023 85.1898 81.116 84.7464 80.6301 85.5004C80.1339 86.2711 80.6288 86.2028 80.2254 86.757C79.8143 87.3215 79.8955 87.5084 80.4806 86.8666C81.0503 86.2415 82.9023 83.6999 82.0027 84.4887Z" fill="#FF95B3"/>
<path d="M76.2461 91.5412C75.3632 92.5723 74.0937 93.6459 74.3734 93.0311C74.6505 92.4228 75.7254 91.2151 76.451 90.2059C77.156 89.2264 78.4642 87.3602 79.0119 87.047C79.5481 86.7403 77.1019 90.5423 76.2461 91.5412Z" fill="#FF95B3"/>
<path d="M81.4316 95.4604C81.4316 95.4604 109.42 61.26 113.611 48.5766C117.835 35.7901 114.984 35.8893 110.602 41.1207C105.9 46.7336 105.918 50.1322 102.811 53.4175C99.5397 56.8741 90.737 63.1533 86.2222 70.9907C81.5219 79.1502 81.4316 95.4604 81.4316 95.4604Z" fill="#FF7BA2"/>
<path d="M86.2209 70.9907C85.2465 72.6816 84.4603 74.8018 83.8301 77.0804C84.5248 76.3819 85.3329 75.3212 86.2518 73.7153C90.7163 65.9114 99.4314 59.4879 102.673 55.999C105.754 52.6828 105.734 49.3564 110.397 43.7048C113.185 40.3255 115.354 39.0328 115.462 41.8077C115.816 39.8589 115.765 38.6887 115.412 38.1461L115.41 38.1448C115.346 38.0469 115.271 37.9682 115.187 37.9102L115.185 37.9089C115.101 37.851 115.007 37.8136 114.904 37.7956H114.903C114.851 37.7865 114.798 37.7827 114.741 37.7827H114.738C114.627 37.7839 114.508 37.8033 114.381 37.8407C114.375 37.842 114.37 37.8432 114.365 37.8458C114.241 37.8832 114.109 37.9373 113.971 38.0069C113.962 38.0108 113.954 38.0159 113.945 38.0198C113.807 38.0907 113.664 38.177 113.513 38.2776C113.502 38.2853 113.491 38.293 113.48 38.3008C113.404 38.3523 113.328 38.4064 113.249 38.4657L113.245 38.4683C113.169 38.525 113.092 38.5869 113.013 38.65C113 38.6604 112.986 38.6719 112.973 38.6823C112.893 38.748 112.812 38.8163 112.73 38.8872C112.721 38.8962 112.71 38.904 112.701 38.913C112.625 38.98 112.549 39.0483 112.471 39.1205C112.456 39.1333 112.442 39.1462 112.428 39.1591C112.344 39.2377 112.259 39.3189 112.173 39.4027C112.157 39.4182 112.142 39.4336 112.125 39.4491C112.046 39.5264 111.968 39.605 111.888 39.6862C111.875 39.7004 111.861 39.7133 111.848 39.7275C111.759 39.8177 111.67 39.9118 111.58 40.0085C111.561 40.0291 111.541 40.051 111.521 40.0716C111.437 40.1618 111.352 40.2546 111.265 40.35C111.255 40.3603 111.246 40.3706 111.237 40.3822C111.144 40.4853 111.05 40.5923 110.956 40.7006C110.934 40.7264 110.912 40.7521 110.889 40.7779C110.794 40.8887 110.697 41.0022 110.599 41.1182C110.029 41.7987 109.527 42.4521 109.077 43.0797C108.851 43.3955 108.639 43.7048 108.439 44.0064C108.338 44.1585 108.242 44.308 108.148 44.4562C107.77 45.0517 107.438 45.62 107.137 46.1665C106.685 46.9875 106.305 47.7543 105.946 48.4799C105.707 48.9645 105.477 49.4298 105.241 49.8809C105.182 49.9943 105.123 50.1065 105.064 50.2173C104.462 51.3334 103.795 52.3709 102.808 53.4149C99.5384 56.8741 90.7357 63.1533 86.2209 70.9907Z" fill="#FF608E"/>
<path d="M86.466 88.1617C86.466 88.1617 101.48 58.2041 97.8154 61.5035C93.909 65.022 89.2834 70.109 87.1774 74.9473C85.0521 79.8307 83.0751 88.2506 84.0765 88.6927C85.0508 89.1219 86.466 88.1617 86.466 88.1617Z" fill="#FF95B3"/>
<path d="M90.2383 83.2797C90.2383 83.2797 98.4211 63.3389 100.477 60.2586C102.638 57.0198 104.763 55.8972 106.667 52.9136C108.527 49.9969 108.788 50.5589 108.897 51.7755C109.004 52.9742 97.7663 73.1173 90.2383 83.2797Z" fill="#FF95B3"/>
<path d="M97.9961 72.9949C97.9961 72.9949 110.451 56.3896 112.115 50.9262C113.792 45.4216 115.02 42.8169 113.025 44.8056C110.954 46.869 110.726 48.4749 110.498 50.0846C110.272 51.6789 104.534 62.4265 102.74 65.0131C100.904 67.663 97.9961 72.9949 97.9961 72.9949Z" fill="#FF95B3"/>
<path d="M114.5 41.9739C113.927 41.6711 114.194 40.4518 112.721 42.0074C111.209 43.603 110.045 46.2644 109.275 46.8431C108.492 47.4308 107.407 49.5497 108.415 49.0586C109.4 48.5779 111.064 46.8096 111.993 45.504C112.91 44.2139 114.814 42.1402 114.5 41.9739Z" fill="#FF95B3"/>
<path d="M108.134 50.0369C107.62 50.0988 107.404 49.8127 106.874 50.5383C106.34 51.269 106.084 52.5205 105.517 53.161C104.944 53.8067 104.541 54.5517 104.914 54.3145C105.282 54.08 108.771 49.9609 108.134 50.0369Z" fill="#FF95B3"/>
<path d="M110.374 47.9979C109.953 48.2647 109.332 48.6488 109.096 49.2223C108.859 49.7959 109.217 49.926 109.601 49.676C109.98 49.4273 110.895 47.6667 110.374 47.9979Z" fill="#FF95B3"/>
<path d="M99.973 60.1709C98.8801 60.8991 99.067 60.1271 99.7952 59.3074C100.516 58.4967 101.634 57.8923 102.165 57.177C102.692 56.4668 102.994 56.1292 103.324 55.9693C103.653 55.8108 100.715 59.676 99.973 60.1709Z" fill="#FF95B3"/>
<path d="M84.3508 99.1517C77.3615 106.691 70.8116 111.983 69.7213 110.972C68.6309 109.961 73.4138 103.03 80.4031 95.4914C87.3924 87.953 93.9423 82.6598 95.0327 83.6716C96.123 84.682 91.3402 91.6133 84.3508 99.1517Z" fill="#A12CA3"/>
<path d="M96.4093 86.1461C95.1231 87.5329 93.1975 87.8383 92.1072 86.8279C91.0168 85.8174 91.1754 83.8739 92.4616 82.4871C93.7479 81.1003 95.6734 80.7949 96.7637 81.8053C97.8541 82.8158 97.6943 84.7593 96.4093 86.1461Z" fill="#A12CA3"/>
<path d="M95.0214 82.2475C95.0214 82.2475 102.248 81.8544 103.435 79.5138C104.622 77.1733 105.84 77.3718 104.976 79.1891C104.113 81.0076 99.6122 83.1947 97.3452 82.6586C95.0781 82.1224 94.4505 83.1677 94.4505 83.1677L93.8086 81.8582L95.0214 82.2475Z" fill="#A12CA3"/>
<path d="M95.4599 82.8262C95.4599 82.8262 101.474 78.7998 101.3 76.1809C101.126 73.562 102.274 73.1109 102.46 75.1151C102.645 77.1192 99.8909 81.2976 97.6677 81.9936C95.4444 82.6895 95.438 83.9088 95.438 83.9088L94.2188 83.1097L95.4599 82.8262Z" fill="#A12CA3"/>
<g filter="url(#filter0_f_39_13178)">
<path d="M80.8262 92.756C80.8262 92.756 79.1443 101.504 68.9446 107.116C58.7438 112.727 48.3283 115.743 45.0329 112.978C41.7376 110.214 40.1784 107.382 40.9675 100.984C41.7565 94.5853 40.373 88.5632 46.861 86.281C53.3491 83.9988 70.1323 84.6439 75.7075 85.1428C81.2826 85.6429 82.1518 89.1517 80.8262 92.756Z" fill="#E75D85"/>
<path d="M71.8932 89.6069C71.5063 89.4948 58.18 84.8844 56.3212 87.2209C54.4624 89.5573 55.439 89.9595 60.3714 90.5551C65.3038 91.1507 71.8932 89.6069 71.8932 89.6069Z" fill="#E77495"/>
<path d="M51.2364 110.994C48.3102 108.472 46.9397 105.874 47.7087 99.9684C48.4777 94.063 47.2959 88.5221 53.1329 86.3637C56.3692 85.1678 62.4327 84.775 68.0444 84.7337C60.8133 84.525 51.3579 84.6996 46.8572 86.2823C40.3691 88.5645 41.7526 94.5867 40.9636 100.985C40.1745 107.383 41.7337 110.215 45.029 112.98C47.7854 115.293 55.5271 113.558 63.9553 109.644C58.136 111.937 53.2143 112.697 51.2364 110.994Z" fill="#E74474"/>
<path d="M75.8425 91.2275C72.6887 101.03 70.2107 105.789 64.8266 107.086C59.4426 108.383 56.0859 110.745 53.3414 109.117C50.5969 107.488 49.835 104.41 50.0284 101.966C50.2218 99.5225 50.828 98.3631 55.1082 98.6037C59.3883 98.8443 65.23 98.9882 67.8141 97.1176C70.4006 95.247 75.8425 91.2275 75.8425 91.2275Z" fill="#E77495"/>
<path d="M74.4577 90.8264C74.4577 90.8264 67.8046 95.6856 65.0388 96.3131C62.2719 96.9405 53.4462 97.2413 53.0028 96.0418C52.5593 94.8423 51.1711 93.6063 53.9062 92.1367C56.6401 90.6671 62.6399 93.3574 64.5588 92.7217C66.4765 92.086 74.4577 90.8264 74.4577 90.8264Z" fill="#E77495"/>
<path d="M53.203 87.7174C52.243 88.8355 50.7121 88.4534 51.0577 89.4288C51.4032 90.4041 52.966 90.0987 53.0344 90.8169C53.1028 91.5364 53.8883 91.6756 54.2386 90.8004C54.5877 89.9265 54.3247 86.4106 53.203 87.7174Z" fill="#E77495"/>
<path d="M51.9787 96.681C51.6921 97.8298 50.3298 99.0717 49.7224 98.4867C49.115 97.9029 49.5184 96.5619 49.3214 95.4556C49.1245 94.3493 48.6185 92.1615 49.6293 91.639C50.6412 91.1153 52.2653 95.5287 51.9787 96.681Z" fill="#E77495"/>
<path d="M83.5856 95.6504C83.5856 95.6504 88.4472 52.3867 66.0369 41.6162C43.6266 30.8456 34.8057 35.6471 35.4119 43.8559C36.0181 52.0647 44.7412 53.1863 43.8484 58.2036C42.9555 63.2209 33.9318 74.3511 39.8383 81.2697C45.7461 88.1905 83.5856 95.6504 83.5856 95.6504Z" fill="#E75D85"/>
<path d="M39.8389 81.2722C41.0832 82.73 43.7463 84.2102 47.1713 85.6408C47.4402 84.8235 47.1961 83.7585 46.0084 82.3679C40.1007 75.4494 49.1256 64.3192 50.0185 59.3019C50.9113 54.2846 42.1883 53.1618 41.5821 44.953C41.1987 39.7564 44.5943 35.928 52.8208 36.5472C48.4534 35.3996 44.9764 35.1543 42.3121 35.5848C42.3097 35.5848 42.3074 35.586 42.3039 35.586C41.8238 35.6638 41.3698 35.7641 40.9416 35.8844C40.9381 35.8856 40.9334 35.8867 40.9298 35.8879C40.5017 36.0094 40.1007 36.1509 39.7244 36.3113C39.7221 36.3125 39.7197 36.3137 39.7174 36.3137C39.531 36.3939 39.3494 36.4788 39.176 36.5684C39.1713 36.5708 39.1677 36.5732 39.1642 36.5743C38.8198 36.7524 38.5002 36.9482 38.2053 37.1605C38.1936 37.1688 38.1829 37.177 38.1712 37.1853C37.8857 37.3929 37.6227 37.6169 37.3821 37.8552C37.368 37.8693 37.3538 37.8847 37.3385 37.8988C37.105 38.1347 36.8938 38.3848 36.7028 38.6466C36.6886 38.6666 36.6745 38.6855 36.6603 38.7055C36.5671 38.8376 36.4775 38.9721 36.3949 39.1101C36.3937 39.1125 36.3926 39.1148 36.3914 39.1172C36.3112 39.2504 36.2381 39.3885 36.1673 39.5276C36.1555 39.5512 36.1425 39.5748 36.1319 39.5984C36.0623 39.7399 35.9975 39.8838 35.9385 40.0301C35.9314 40.0466 35.9255 40.0643 35.9184 40.082C35.8654 40.2164 35.8158 40.3532 35.771 40.4924C35.7628 40.5172 35.7545 40.5419 35.7463 40.5679C35.6991 40.7177 35.6566 40.8698 35.6189 41.0255C35.6118 41.0538 35.6059 41.0821 35.6 41.1104C35.567 41.2496 35.5386 41.3911 35.5139 41.535C35.5092 41.5598 35.5045 41.5834 35.5009 41.607C35.475 41.765 35.4538 41.9266 35.4361 42.0893C35.4325 42.1247 35.429 42.1601 35.4254 42.1955C35.4113 42.3476 35.3995 42.4998 35.3936 42.6554C35.3924 42.672 35.3913 42.6896 35.3913 42.7062C35.3842 42.8736 35.3842 43.0423 35.3853 43.2133C35.3853 43.2534 35.3865 43.2935 35.3877 43.3336C35.3924 43.507 35.3995 43.6804 35.4125 43.8573C35.4879 44.8834 35.6908 45.7986 35.9857 46.6242C36.1331 47.037 36.3041 47.4286 36.4928 47.7989C36.5872 47.9841 36.6862 48.1657 36.79 48.3415C37.204 49.0456 37.6829 49.6766 38.1947 50.2557C38.9614 51.1249 39.7999 51.8774 40.5925 52.5862C41.1209 53.058 41.6281 53.5109 42.081 53.9662C42.1942 54.0794 42.3039 54.1938 42.41 54.3082C43.4679 55.451 44.1284 56.6376 43.8489 58.2062C42.9561 63.2235 33.9323 74.3537 39.8389 81.2722Z" fill="#E74474"/>
<path d="M81.3709 88.5692C81.3709 88.5692 52.0422 61.519 49.3802 66.8312C46.7182 72.1433 45.9021 78.3825 51.3333 82.1389C56.7646 85.8966 70.9873 91.1167 75.1188 90.6025C79.2492 90.0883 81.3709 88.5692 81.3709 88.5692Z" fill="#E77495"/>
<path d="M81.1612 83.2464C81.1612 83.2464 55.8118 66.8972 54.2455 63.4403C52.5566 59.7121 56.3142 56.6916 54.4424 53.1675C52.5707 49.6433 54.9626 49.4699 58.6872 49.7318C62.4118 49.9948 79.5501 71.5901 81.1612 83.2464Z" fill="#E77495"/>
<path d="M80.016 71.2965C80.016 71.2965 77.6088 49.1032 67.5353 44.7216C57.4618 40.34 54.2136 37.5684 53.0731 41.3555C51.9326 45.1427 55.6396 46.0001 59.3902 46.8658C63.1419 47.7315 73.5162 59.4267 74.4691 62.6489C75.4221 65.8699 80.016 71.2965 80.016 71.2965Z" fill="#E77495"/>
<path d="M50.0253 38.1664C47.2784 38.9908 44.7627 38.2077 44.3003 40.971C43.8368 43.7344 47.3338 46.2702 46.4516 47.5546C45.5694 48.8378 47.8032 51.0233 49.6702 49.4853C51.5373 47.9473 52.1258 44.9622 51.5739 43.1565C51.0207 41.3508 51.5574 37.7064 50.0253 38.1664Z" fill="#E77495"/>
<path d="M51.4123 50.2C49.9368 50.9206 48.4908 51.1164 48.7538 52.0717C49.0168 53.0271 51.5255 53.7972 51.4323 54.7561C51.3391 55.715 52.035 56.4887 52.5799 55.9355C53.1248 55.3824 53.2687 49.293 51.4123 50.2Z" fill="#E77495"/>
<path d="M53.1321 46.3599C52.4834 47.0557 51.5068 48.0689 52.3017 48.5925C53.0967 49.1162 54.6276 48.6574 55.2078 48.0287C55.7869 47.4001 53.9435 45.4895 53.1321 46.3599Z" fill="#E77495"/>
<path d="M52.479 63.9745C51.0271 65.4571 49.6484 64.9581 49.7581 63.8448C49.8678 62.7314 51.7183 61.2206 51.5036 60.3336C51.289 59.4467 51.3444 58.9608 51.9518 58.502C52.5592 58.0443 53.4827 62.9508 52.479 63.9745Z" fill="#E77495"/>
<path d="M79.0375 94.2576C79.0375 94.2576 74.3906 100.832 68.5347 105.73C60.7824 112.213 53.3862 116.826 55.3605 112.655C57.2146 108.741 59.6537 105.045 65.7371 98.0541C70.6388 92.4212 74.0379 87.8038 76.4746 87.0029C78.646 86.2882 80.8716 88.2909 81.4436 89.0705C81.9979 89.8253 80.7548 92.0025 79.0375 94.2576Z" fill="#FF7BA2"/>
<path d="M79.0463 91.4847C79.0357 91.3798 79.0086 87.3037 77.6381 88.5633C76.1626 89.9185 76.1319 90.2829 76.7051 91.138C77.263 91.9683 79.0463 91.4847 79.0463 91.4847Z" fill="#FF95B3"/>
<path d="M59.9045 109.901C61.3847 106.654 63.3496 103.558 68.3409 97.5776C72.4712 92.6287 75.3962 88.509 77.5157 87.7046C78.5996 87.293 79.7047 87.6515 80.5421 88.1516C79.569 87.3472 78.0087 86.4969 76.4766 87.0005C74.0399 87.8013 70.6408 92.4188 65.7391 98.0517C59.6556 105.042 57.2154 108.738 55.3625 112.653C53.7195 116.123 58.8005 113.372 65.2178 108.402C61.3469 111.173 58.856 112.199 59.9045 109.901Z" fill="#FF608E"/>
<path d="M78.9408 92.8611C73.368 100.093 69.7884 104.41 67.4886 105.572C64.9504 106.854 61.8002 109.631 62.4288 107.57C63.0421 105.555 65.467 102.108 67.4532 99.6381C69.2896 97.3536 70.2343 96.3699 71.0669 96.896C71.8701 97.4031 73.0331 97.9138 74.6265 96.5575C76.1066 95.2967 78.9408 92.8611 78.9408 92.8611Z" fill="#FF95B3"/>
<path d="M78.9042 92.4884C78.9042 92.4884 75.4025 95.4429 74.5345 95.7283C73.6287 96.0267 71.5706 95.6115 72.2263 94.589C72.8632 93.5959 73.309 92.5202 74.6901 91.6734C75.9863 90.8796 75.6785 93.3093 76.3531 93.005C77.0065 92.7113 78.9042 92.4884 78.9042 92.4884Z" fill="#FF95B3"/>
<path d="M76.8672 88.5762C76.1347 89.2178 76.0557 88.8121 75.6111 89.5021C75.157 90.2073 75.6099 90.1448 75.2407 90.652C74.8645 91.1686 74.9388 91.3396 75.4743 90.7523C75.9956 90.1803 77.6904 87.8544 76.8672 88.5762Z" fill="#FF95B3"/>
<path d="M71.5994 95.03C70.7915 95.9736 69.6298 96.956 69.8857 96.3935C70.1393 95.8368 71.1229 94.7316 71.7869 93.8081C72.4321 92.9118 73.6292 91.204 74.1304 90.9174C74.6211 90.6367 72.3825 94.116 71.5994 95.03Z" fill="#FF95B3"/>
<path d="M76.3418 98.6168C76.3418 98.6168 101.954 67.3195 105.79 55.7128C109.655 44.0117 107.046 44.1025 103.036 48.8898C98.7332 54.0262 98.7497 57.1364 95.9061 60.1427C92.9128 63.3059 84.8573 69.0521 80.7257 76.2242C76.4244 83.6911 76.3418 98.6168 76.3418 98.6168Z" fill="#FF7BA2"/>
<path d="M80.725 76.2239C79.8333 77.7713 79.1138 79.7115 78.5371 81.7967C79.1728 81.1575 79.9123 80.1868 80.7532 78.7173C84.8388 71.5758 92.8141 65.6976 95.7803 62.5049C98.6003 59.4702 98.5815 56.4261 102.849 51.2543C105.4 48.1618 107.385 46.9789 107.484 49.5182C107.808 47.7349 107.761 46.664 107.438 46.1675L107.437 46.1663C107.378 46.0766 107.309 46.0047 107.233 45.9516L107.23 45.9504C107.154 45.8973 107.067 45.8632 106.973 45.8466H106.972C106.925 45.8384 106.876 45.8348 106.824 45.8348H106.821C106.72 45.836 106.611 45.8537 106.494 45.8879C106.49 45.8891 106.485 45.8903 106.48 45.8926C106.367 45.9268 106.245 45.9764 106.119 46.0401C106.111 46.0436 106.104 46.0483 106.096 46.0518C105.969 46.1167 105.838 46.1957 105.7 46.2877C105.69 46.2948 105.68 46.3019 105.67 46.309C105.6 46.3562 105.531 46.4057 105.459 46.4599L105.455 46.4623C105.386 46.5142 105.315 46.5708 105.243 46.6286C105.231 46.638 105.218 46.6486 105.206 46.6581C105.133 46.7182 105.059 46.7807 104.983 46.8456C104.975 46.8539 104.966 46.861 104.957 46.8692C104.888 46.9305 104.818 46.993 104.746 47.0591C104.733 47.0709 104.72 47.0827 104.707 47.0945C104.631 47.1664 104.553 47.2407 104.474 47.3174C104.46 47.3315 104.446 47.3457 104.43 47.3598C104.358 47.4306 104.286 47.5025 104.213 47.5768C104.201 47.5898 104.188 47.6016 104.177 47.6146C104.095 47.6972 104.014 47.7832 103.931 47.8717C103.914 47.8906 103.896 47.9106 103.877 47.9295C103.8 48.0121 103.723 48.097 103.644 48.1843C103.634 48.1937 103.626 48.2031 103.618 48.2137C103.533 48.3081 103.447 48.406 103.36 48.5051C103.34 48.5287 103.32 48.5522 103.299 48.5758C103.212 48.6773 103.123 48.7811 103.034 48.8872C102.513 49.5099 102.053 50.1079 101.641 50.6823C101.435 50.9712 101.24 51.2543 101.057 51.5303C100.965 51.6695 100.877 51.8063 100.791 51.9419C100.445 52.4868 100.141 53.0069 99.8659 53.507C99.4519 54.2583 99.1039 54.96 98.7761 55.6241C98.5567 56.0675 98.3468 56.4933 98.1309 56.9061C98.0767 57.0099 98.0224 57.1125 97.9682 57.214C97.4174 58.2353 96.8076 59.1848 95.9042 60.1401C92.912 63.3057 84.8565 69.0518 80.725 76.2239Z" fill="#FF608E"/>
<path d="M80.9494 91.9375C80.9494 91.9375 94.6885 64.5229 91.3354 67.5423C87.7606 70.7621 83.5276 75.4173 81.6004 79.8449C79.6556 84.3137 77.8463 92.0189 78.7627 92.4235C79.6544 92.8162 80.9494 91.9375 80.9494 91.9375Z" fill="#FF95B3"/>
<path d="M84.4004 87.4699C84.4004 87.4699 91.8886 69.2218 93.7698 66.403C95.7477 63.4391 97.6925 62.4118 99.4345 59.6814C101.136 57.0124 101.376 57.5266 101.475 58.64C101.573 59.7369 91.2894 78.1701 84.4004 87.4699Z" fill="#FF95B3"/>
<path d="M91.5 78.058C91.5 78.058 102.898 62.8623 104.421 57.8627C105.955 52.8254 107.079 50.4417 105.253 52.2616C103.358 54.1499 103.149 55.6194 102.94 57.0925C102.734 58.5515 97.4832 68.3867 95.8415 70.7538C94.1608 73.1787 91.5 78.058 91.5 78.058Z" fill="#FF95B3"/>
<path d="M106.603 49.6705C106.079 49.3933 106.323 48.2776 104.975 49.7011C103.592 51.1613 102.527 53.5968 101.821 54.1263C101.106 54.6641 100.112 56.6031 101.035 56.1537C101.936 55.7138 103.458 54.0957 104.309 52.9009C105.149 51.7203 106.891 49.8226 106.603 49.6705Z" fill="#FF95B3"/>
<path d="M100.778 57.049C100.308 57.1056 100.11 56.8438 99.6249 57.5078C99.1366 58.1765 98.9019 59.3218 98.3829 59.9079C97.8593 60.4988 97.4901 61.1805 97.831 60.9635C98.1683 60.7488 101.361 56.9794 100.778 57.049Z" fill="#FF95B3"/>
<path d="M102.828 55.183C102.442 55.4272 101.873 55.7787 101.658 56.3035C101.441 56.8283 101.768 56.9475 102.12 56.7186C102.467 56.491 103.304 54.8799 102.828 55.183Z" fill="#FF95B3"/>
<path d="M93.3098 66.3227C92.3097 66.989 92.4807 66.2826 93.1471 65.5324C93.8064 64.7906 94.8301 64.2374 95.3161 63.5829C95.7984 62.933 96.0744 62.624 96.3763 62.4777C96.6771 62.3327 93.9892 65.8698 93.3098 66.3227Z" fill="#FF95B3"/>
</g>
<defs>
<filter id="filter0_f_39_13178" x="2.67029e-05" y="2.67029e-05" width="143.088" height="149.632" filterUnits="userSpaceOnUse" color-interpolation-filters="sRGB">
<feFlood flood-opacity="0" result="BackgroundImageFix"/>
<feBlend mode="normal" in="SourceGraphic" in2="BackgroundImageFix" result="shape"/>
<feGaussianBlur stdDeviation="17.6914" result="effect1_foregroundBlur_39_13178"/>
</filter>
</defs>
</svg>
