<svg width="173" height="142" viewBox="0 0 173 142" fill="none" xmlns="http://www.w3.org/2000/svg">
<path d="M95.9358 98.12C95.9358 98.12 97.4524 101.257 102.627 103.757C108.076 106.389 114.129 108.445 116.526 108.012C119.198 107.531 120.799 106.741 121.169 104.173C121.591 101.245 124.19 98.2168 118.275 96.5924C112.829 95.0976 100.97 95.0512 97.8275 95.1672C94.9947 95.2708 94.9497 96.6865 95.9358 98.12Z" fill="#D47B0F"/>
<path d="M97.2227 97.4041C97.2227 97.4041 107.766 95.3091 108.512 96.1234C109.247 96.9253 109.971 97.61 110.962 97.8705C111.972 98.1338 115.656 98.3411 115.493 99.9123C115.342 101.377 112.586 102.512 109.108 101.534C105.837 100.615 99.4144 98.6684 98.7147 98.3029C98.0205 97.936 97.2227 97.4041 97.2227 97.4041Z" fill="#F3FF95"/>
<path d="M112.769 106.299C117.789 107.429 118.967 107.16 118.354 100.387C118.224 98.9493 113.549 97.3795 110.994 95.5273C113.811 95.7565 116.484 96.1015 118.275 96.5939C124.19 98.2183 121.59 101.246 121.169 104.174C120.799 106.743 119.198 107.532 116.526 108.014C114.741 108.336 110.931 107.279 106.898 105.653C108.891 105.808 111.117 105.927 112.769 106.299Z" fill="#FF9A60"/>
<path d="M98.0558 98.4011C98.0558 98.4011 107.999 102.583 111.026 102.434C114.403 102.268 115.016 101.633 115.426 102.405C115.827 103.16 115.344 105.849 111.969 105.447C108.881 105.079 107.004 104.98 104.862 103.865C102.753 102.767 100.241 102.019 99.466 101.05C98.6682 100.055 97.1965 98.0492 98.0558 98.4011Z" fill="#F3FF95"/>
<path d="M115.729 101.681C115.556 101.071 116.28 99.6885 116.737 99.8167C117.198 99.9462 117.118 100.646 117.329 101.463C117.534 102.257 117.571 102.636 117.063 102.532C116.56 102.429 115.793 101.908 115.729 101.681Z" fill="#F3FF95"/>
<path d="M116.904 103.252C117.236 103.505 117.385 105.66 116.696 106.042C116.034 106.408 114.934 106.53 114.392 106.299C113.855 106.07 113.748 105.947 114.093 105.808C114.445 105.666 115.697 104.894 115.843 104.401C115.995 103.895 115.985 102.554 116.904 103.252Z" fill="#F3FF95"/>
<path d="M112.307 97.4696C112.307 97.4696 110.682 97.5691 110.317 97.0236C109.946 96.4698 109.607 96.2857 110.298 96.1766C111.004 96.0648 111.446 96.5762 111.919 96.8422C112.391 97.1068 112.974 97.4723 112.307 97.4696Z" fill="#F3FF95"/>
<path d="M96.5312 98.6328C96.5312 98.6328 88.952 78.776 101.959 61.2036C142.943 5.84198 155.474 12.6178 144.869 40.748C138.081 58.7527 122.812 66.4041 123.162 72.0847C123.471 77.0766 132.775 84.9789 124.228 90.935C118.022 95.2572 96.5312 98.6328 96.5312 98.6328Z" fill="#D47B0F"/>
<path d="M112.881 91.6374C115.25 90.6241 119.152 85.384 116.342 80.3622C113.234 74.8057 117.293 69.256 123.063 55.3334C127.679 44.1973 121.581 42.9029 115.917 44.1113C147.034 9.81907 152.86 19.5491 144.868 40.748C138.08 58.7527 122.811 66.4041 123.162 72.0847C123.47 77.0766 132.774 84.9789 124.227 90.935C121.704 92.6931 115.742 94.4893 110.285 95.8314C110.731 94.3188 111.581 92.1939 112.881 91.6374Z" fill="#FF9A60"/>
<path d="M96.7309 96.6034C96.7309 96.6034 93.7371 75.5313 101.124 67.0234C113.054 53.2808 115.858 48.2563 118.287 53.5059C120.542 58.3777 112.915 68.7896 110.495 75.6568C108.561 81.1465 103.348 82.1503 100.881 84.3161C98.7221 86.2092 96.7309 96.6034 96.7309 96.6034Z" fill="#F3FF95"/>
<path d="M97.2227 97.4039C97.2227 97.4039 99.9232 85.508 101.743 84.4824C103.728 83.3626 108.008 81.1831 109.139 80.7208C110.316 80.2393 113.169 78.709 114.23 82.6057C115.195 86.1409 113.637 89.541 110.821 90.6881C108.291 91.7192 109.285 94.2178 107.963 94.8234C106.719 95.3935 100.905 97.0411 99.4853 97.0029C98.1269 96.966 97.2227 97.4039 97.2227 97.4039Z" fill="#F3FF95"/>
<path d="M110.907 78.7146C110.972 77.5634 112.64 73.1553 113.585 72.6507C114.56 72.1283 114.938 72.8471 114.243 75.0293C113.595 77.0602 114.946 78.3804 114.44 79.1087C113.952 79.8138 110.867 79.4088 110.907 78.7146Z" fill="#F3FF95"/>
<path d="M93.5503 99.0243C93.5503 99.0243 95.2252 102.054 94.8106 105.763C94.3769 109.646 93.2544 113.232 91.8932 113.64C90.3848 114.093 89.1177 113.962 87.0841 112.024C84.7764 109.824 81.4936 108.243 82.8056 105.08C84.0236 102.145 89.0741 98.2319 90.5239 97.284C91.84 96.4247 92.9148 97.5445 93.5503 99.0243Z" fill="#D47B0F"/>
<path d="M92.4511 98.8771C92.4511 98.8771 86.3368 100.669 86.6123 101.56C86.885 102.437 87.076 103.217 86.8414 103.745C86.6027 104.281 85.1829 105.63 86.3968 106.827C87.5315 107.947 89.5487 107.974 90.3316 106.073C91.0708 104.277 92.4306 100.616 92.4647 100.091C92.4988 99.5673 92.4511 98.8771 92.4511 98.8771Z" fill="#F3FF95"/>
<path d="M92.2621 111.072C90.9186 113.568 90.2121 113.722 85.5272 108.116C84.537 106.932 85.3812 104.188 85.118 101.891C84.0883 102.985 83.2072 104.117 82.8076 105.08C81.4955 108.243 84.7784 109.824 87.0861 112.024C89.1197 113.962 90.3867 114.093 91.8952 113.64C92.9085 113.336 93.7869 111.275 94.3461 108.673C93.5891 109.439 92.7067 110.246 92.2621 111.072Z" fill="#FF9A60"/>
<path d="M92.8281 99.9532C92.8281 99.9532 91.5897 106.559 90.1658 107.412C88.5877 108.359 87.8608 108.048 88.2495 108.795C88.63 109.526 90.8136 111.529 91.9797 110.132C93.0518 108.848 93.8005 108.165 93.9096 106.575C94.0174 105.005 94.5657 103.584 94.1838 102.547C93.791 101.485 92.9426 99.3858 92.8281 99.9532Z" fill="#F3FF95"/>
<path d="M87.5921 108.313C87.2197 107.771 85.9022 106.9 85.8013 107.148C85.7004 107.397 86.2432 107.929 86.7492 108.648C87.2415 109.346 87.502 109.661 87.6439 109.416C87.783 109.174 87.7298 108.514 87.5921 108.313Z" fill="#F3FF95"/>
<path d="M88.2363 109.942C88.2785 110.249 89.7938 112.022 90.3707 112.111C90.9258 112.195 91.4919 111.946 91.556 111.59C91.6201 111.235 91.5764 111.103 91.3227 111.1C91.0663 111.097 89.9575 110.875 89.532 110.526C89.0969 110.167 88.119 109.091 88.2363 109.942Z" fill="#F3FF95"/>
<path d="M85.9775 103.859C85.9775 103.859 86.7454 103.415 86.5012 102.861C86.2544 102.3 86.2639 102.044 85.8902 102.18C85.507 102.321 85.6925 102.87 85.6843 103.233C85.6761 103.597 85.6938 104.076 85.9775 103.859Z" fill="#F3FF95"/>
<path d="M93.6723 99.6352C93.6723 99.6352 82.262 81.2718 64.2328 72.1474C12.435 45.9321 12.5059 54.8955 34.0908 71.3891C48.5112 82.4093 59.5928 83.1526 63.3994 87.5948C66.7655 91.5241 68.5754 100.609 76.2596 102.524C81.947 103.942 93.6723 99.6352 93.6723 99.6352Z" fill="#D47B0F"/>
<path d="M81.4907 99.4251C79.764 99.3951 74.3889 96.5555 71.9666 91.7328C69.2907 86.4055 63.7547 83.4935 51.8847 74.8929C42.6253 68.1825 44.0246 65.1601 46.9693 64.1099C13.5608 50.1001 17.7193 58.8808 34.0887 71.389C48.5091 82.4093 59.5907 83.1526 63.3973 87.5948C66.7634 91.5241 68.5733 100.61 76.2574 102.524C78.5583 103.098 82.3499 102.602 85.641 101.902C84.3467 100.846 82.4427 99.4415 81.4907 99.4251Z" fill="#FF9A60"/>
<path d="M92.0714 98.0709C92.0714 98.0709 77.8652 80.3772 68.693 76.3182C54.334 69.9639 49.8127 67.1679 52.4695 71.9142C54.9409 76.3305 65.1783 81.6742 71.0116 86.1505C75.7307 89.7716 78.6276 88.8169 81.2408 89.6912C83.5389 90.4604 92.0714 98.0709 92.0714 98.0709Z" fill="#F3FF95"/>
<path d="M92.4526 98.8769C92.4526 98.8769 82.5166 90.3103 80.9973 90.1112C79.3469 89.8957 75.9877 89.6174 75.1857 89.6324C74.3537 89.6488 72.0897 89.4033 74.4315 92.783C76.5633 95.8586 79.6566 98.019 81.671 98.004C83.4904 97.9904 84.8912 100.297 85.8977 100.346C86.8483 100.392 90.5745 99.8016 91.1651 99.3024C91.7324 98.8251 92.4526 98.8769 92.4526 98.8769Z" fill="#F3FF95"/>
<path d="M73.022 88.6586C72.1737 87.7857 68.3671 84.9366 67.6265 84.8615C66.8654 84.7852 67.22 85.463 69.0408 86.9128C70.743 88.2672 71.1289 89.7361 71.8532 90.133C72.5569 90.5203 73.5335 89.1837 73.022 88.6586Z" fill="#F3FF95"/>
<path d="M97.9827 100.254C100.26 105.23 101.071 109.011 100.057 109.27C99.0452 109.528 96.4006 106.23 93.8583 101.347C90.9246 95.714 89.2457 90.1794 90.5441 89.818C91.8466 89.4565 95.3545 94.5111 97.9827 100.254Z" fill="#A12CA3"/>
<path d="M93.1791 89.7593C93.7546 91.0169 93.1845 92.2921 91.9229 92.6385C90.6654 92.9836 89.1406 92.2907 88.4996 91.0578C87.8381 89.788 88.3577 88.4296 89.6834 88.0586C91.0119 87.6849 92.5858 88.4637 93.1791 89.7593Z" fill="#A12CA3"/>
<path d="M88.7193 88.3272C88.7193 88.3272 82.6677 85.0416 80.3518 85.9009C78.0564 86.752 77.0962 86.0223 78.8379 85.3226C80.5946 84.6175 85.6219 85.5381 87.1385 86.9811C88.6033 88.3736 89.6835 88.0572 89.6835 88.0572L89.4217 89.1115L88.7193 88.3272Z" fill="#A12CA3"/>
<path d="M90.6506 87.7858C90.6506 87.7858 92.4441 82.2511 94.9946 81.7233C97.5491 81.1955 97.661 80.1371 95.6711 80.5026C93.6812 80.8681 90.6069 84.1224 90.6942 85.9773C90.7788 87.7626 89.6836 88.0558 89.6836 88.0558L90.7911 88.7282L90.6506 87.7858Z" fill="#A12CA3"/>
<g filter="url(#filter0_f_39_13343)">
<path d="M96.527 99.4422C96.527 99.4422 97.9149 102.313 102.65 104.601C107.636 107.009 113.176 108.89 115.37 108.495C117.815 108.054 119.28 107.332 119.618 104.981C120.004 102.302 122.383 99.5308 116.97 98.0443C111.986 96.6764 101.134 96.6339 98.2581 96.74C95.6658 96.8349 95.6246 98.1304 96.527 99.4422Z" fill="#D47B0F"/>
<path d="M97.7051 98.787C97.7051 98.787 107.353 96.8699 108.036 97.615C108.708 98.3489 109.371 98.9755 110.279 99.2139C111.202 99.4547 114.573 99.6445 114.425 101.082C114.286 102.423 111.764 103.461 108.581 102.566C105.588 101.725 99.7108 99.944 99.0705 99.6095C98.4352 99.2738 97.7051 98.787 97.7051 98.787Z" fill="#F3FF95"/>
<path d="M111.93 106.927C116.525 107.961 117.603 107.715 117.041 101.517C116.923 100.201 112.644 98.7646 110.307 97.0697C112.884 97.2794 115.33 97.5952 116.969 98.0457C122.382 99.5322 120.003 102.303 119.618 104.983C119.279 107.333 117.814 108.056 115.369 108.496C113.735 108.791 110.249 107.823 106.559 106.336C108.382 106.478 110.419 106.587 111.93 106.927Z" fill="#FF9A60"/>
<path d="M98.4672 99.6994C98.4672 99.6994 107.566 103.526 110.337 103.39C113.427 103.238 113.988 102.657 114.363 103.364C114.73 104.054 114.288 106.515 111.199 106.147C108.373 105.81 106.656 105.72 104.695 104.699C102.766 103.695 100.467 103.011 99.7578 102.123C99.0276 101.213 97.6809 99.3774 98.4672 99.6994Z" fill="#F3FF95"/>
<path d="M114.639 102.701C114.481 102.143 115.143 100.877 115.562 100.995C115.983 101.113 115.91 101.754 116.103 102.501C116.29 103.228 116.324 103.575 115.86 103.48C115.399 103.385 114.698 102.908 114.639 102.701Z" fill="#F3FF95"/>
<path d="M115.715 104.139C116.019 104.37 116.155 106.342 115.524 106.691C114.919 107.027 113.912 107.138 113.416 106.927C112.925 106.717 112.827 106.605 113.143 106.478C113.465 106.348 114.611 105.642 114.744 105.19C114.883 104.727 114.874 103.5 115.715 104.139Z" fill="#F3FF95"/>
<path d="M111.508 98.847C111.508 98.847 110.022 98.9381 109.687 98.4388C109.348 97.9321 109.038 97.7636 109.67 97.6638C110.316 97.5614 110.721 98.0295 111.154 98.2728C111.586 98.515 112.119 98.8495 111.508 98.847Z" fill="#F3FF95"/>
<path d="M97.0733 99.9116C97.0733 99.9116 90.1376 81.7403 102.041 65.6596C139.545 14.9975 151.013 21.1981 141.308 46.9404C135.096 63.4168 121.123 70.4187 121.444 75.6171C121.726 80.1852 130.241 87.4167 122.419 92.8672C116.74 96.8225 97.0733 99.9116 97.0733 99.9116Z" fill="#D47B0F"/>
<path d="M112.035 93.51C114.203 92.5827 117.774 87.7874 115.203 83.1919C112.359 78.1071 116.073 73.0285 121.354 60.2878C125.577 50.0969 119.997 48.9124 114.814 50.0183C143.289 18.637 148.621 27.541 141.307 46.9404C135.095 63.4168 121.123 70.4187 121.444 75.6171C121.726 80.1852 130.24 87.4167 122.418 92.8672C120.109 94.4761 114.654 96.1198 109.66 97.348C110.068 95.9638 110.846 94.0193 112.035 93.51Z" fill="#FF9A60"/>
<path d="M97.2561 98.0545C97.2561 98.0545 94.5165 78.7711 101.276 70.9854C112.194 58.4094 114.76 53.8113 116.983 58.6153C119.046 63.0736 112.066 72.6017 109.852 78.8859C108.082 83.9096 103.312 84.8282 101.054 86.8102C99.0784 88.5426 97.2561 98.0545 97.2561 98.0545Z" fill="#F3FF95"/>
<path d="M97.707 98.7869C97.707 98.7869 100.178 87.9009 101.843 86.9623C103.661 85.9376 107.577 83.9431 108.612 83.52C109.689 83.0794 112.3 81.6791 113.271 85.2449C114.153 88.48 112.728 91.5916 110.151 92.6412C107.835 93.5848 108.745 95.8713 107.536 96.4255C106.398 96.9472 101.077 98.4549 99.7776 98.42C98.5345 98.3863 97.707 98.7869 97.707 98.7869Z" fill="#F3FF95"/>
<path d="M110.229 81.6841C110.289 80.6307 111.815 76.5968 112.68 76.135C113.573 75.657 113.918 76.3147 113.282 78.3117C112.689 80.1701 113.926 81.3783 113.463 82.0448C113.016 82.6901 110.193 82.3194 110.229 81.6841Z" fill="#F3FF95"/>
<path d="M94.3452 100.27C94.3452 100.27 95.8779 103.042 95.4985 106.437C95.1016 109.99 94.0744 113.271 92.8288 113.645C91.4484 114.059 90.2889 113.939 88.4279 112.166C86.3161 110.152 83.3119 108.706 84.5126 105.811C85.6272 103.125 90.2489 99.5446 91.5757 98.6772C92.7801 97.8908 93.7636 98.9155 94.3452 100.27Z" fill="#D47B0F"/>
<path d="M93.3394 100.135C93.3394 100.135 87.7441 101.775 87.9962 102.59C88.2458 103.393 88.4205 104.107 88.2059 104.59C87.9874 105.08 86.6882 106.315 87.799 107.41C88.8374 108.435 90.6834 108.46 91.3998 106.72C92.0763 105.076 93.3206 101.726 93.3518 101.246C93.383 100.767 93.3394 100.135 93.3394 100.135Z" fill="#F3FF95"/>
<path d="M93.1665 111.294C91.9371 113.578 91.2906 113.72 87.0033 108.59C86.0972 107.506 86.8697 104.995 86.6289 102.893C85.6865 103.894 84.8802 104.93 84.5146 105.811C83.3139 108.706 86.3181 110.152 88.4299 112.166C90.2908 113.939 91.4503 114.059 92.8307 113.645C93.7581 113.366 94.5619 111.48 95.0736 109.099C94.3809 109.8 93.5734 110.539 93.1665 111.294Z" fill="#FF9A60"/>
<path d="M93.6846 101.12C93.6846 101.12 92.5513 107.164 91.2483 107.946C89.8042 108.812 89.139 108.527 89.4947 109.211C89.8429 109.88 91.8411 111.713 92.9083 110.434C93.8893 109.26 94.5745 108.635 94.6743 107.179C94.7729 105.743 95.2747 104.442 94.9252 103.494C94.5657 102.521 93.7894 100.601 93.6846 101.12Z" fill="#F3FF95"/>
<path d="M88.8921 108.77C88.5514 108.274 87.3457 107.477 87.2534 107.704C87.161 107.932 87.6578 108.419 88.1208 109.077C88.5714 109.716 88.8098 110.004 88.9396 109.779C89.0669 109.558 89.0182 108.954 88.8921 108.77Z" fill="#F3FF95"/>
<path d="M89.4835 110.261C89.5222 110.542 90.9088 112.164 91.4368 112.245C91.9448 112.323 92.4627 112.094 92.5214 111.769C92.5801 111.444 92.5401 111.323 92.308 111.321C92.0733 111.318 91.0586 111.115 90.6692 110.795C90.271 110.467 89.3761 109.482 89.4835 110.261Z" fill="#F3FF95"/>
<path d="M87.4142 104.694C87.4142 104.694 88.1169 104.287 87.8935 103.781C87.6676 103.268 87.6763 103.033 87.3344 103.158C86.9836 103.286 87.1534 103.789 87.1459 104.121C87.1384 104.455 87.1546 104.893 87.4142 104.694Z" fill="#F3FF95"/>
<path d="M94.457 100.829C94.457 100.829 84.0153 84.0243 67.5164 75.6744C20.1156 51.6844 20.1805 59.887 39.9332 74.9804C53.1294 85.0652 63.2704 85.7454 66.7538 89.8105C69.8342 93.4063 71.4904 101.72 78.5223 103.472C83.7269 104.77 94.457 100.829 94.457 100.829Z" fill="#D47B0F"/>
<path d="M83.3092 100.637C81.7291 100.609 76.8103 98.0107 74.5937 93.5973C72.1449 88.7222 67.0788 86.0575 56.2164 78.1869C47.743 72.0462 49.0236 69.2803 51.7182 68.3193C21.1457 55.4987 24.9512 63.534 39.9311 74.9805C53.1274 85.0652 63.2683 85.7454 66.7518 89.8105C69.8321 93.4064 71.4883 101.721 78.5202 103.472C80.6258 103.998 84.0955 103.544 87.1072 102.903C85.9228 101.937 84.1804 100.652 83.3092 100.637Z" fill="#FF9A60"/>
<path d="M92.9923 99.3973C92.9923 99.3973 79.9919 83.2055 71.5983 79.4911C58.4582 73.6762 54.3207 71.1175 56.752 75.461C59.0136 79.5024 68.382 84.3925 73.7201 88.4888C78.0386 91.8025 80.6896 90.9288 83.081 91.7289C85.1841 92.4328 92.9923 99.3973 92.9923 99.3973Z" fill="#F3FF95"/>
<path d="M93.3392 100.135C93.3392 100.135 84.2467 92.2955 82.8563 92.1132C81.3461 91.916 78.272 91.6614 77.5381 91.6752C76.7767 91.6901 74.7049 91.4655 76.8479 94.5583C78.7987 97.3728 81.6294 99.3498 83.4729 99.3361C85.1378 99.3236 86.4197 101.434 87.3408 101.479C88.2107 101.522 91.6205 100.981 92.161 100.524C92.6802 100.087 93.3392 100.135 93.3392 100.135Z" fill="#F3FF95"/>
<path d="M75.5594 90.784C74.7831 89.9852 71.2996 87.3779 70.6219 87.3093C69.9254 87.2394 70.2499 87.8597 71.9161 89.1864C73.4738 90.4258 73.827 91.77 74.4898 92.1332C75.1338 92.4877 76.0274 91.2645 75.5594 90.784Z" fill="#F3FF95"/>
<path d="M98.4015 101.396C100.486 105.949 101.227 109.408 100.3 109.646C99.3737 109.881 96.9536 106.864 94.6272 102.395C91.9425 97.2406 90.406 92.1757 91.5942 91.845C92.7862 91.5142 95.9963 96.1397 98.4015 101.396Z" fill="#A12CA3"/>
<path d="M94.0056 91.7914C94.5323 92.9421 94.0106 94.1091 92.8561 94.4261C91.7053 94.7419 90.3099 94.1079 89.7233 92.9796C89.118 91.8176 89.5935 90.5745 90.8067 90.235C92.0223 89.893 93.4626 90.6057 94.0056 91.7914Z" fill="#A12CA3"/>
<path d="M89.9256 90.4808C89.9256 90.4808 84.3878 87.4741 82.2685 88.2604C80.1679 89.0393 79.2892 88.3715 80.8831 87.7312C82.4906 87.086 87.0912 87.9284 88.4791 89.249C89.8195 90.5233 90.8081 90.2337 90.8081 90.2337L90.5684 91.1985L89.9256 90.4808Z" fill="#A12CA3"/>
<path d="M91.6916 89.9853C91.6916 89.9853 93.3328 84.9205 95.6668 84.4375C98.0045 83.9545 98.1069 82.9859 96.2859 83.3204C94.4649 83.6549 91.6516 86.6329 91.7315 88.3303C91.8089 89.9641 90.8066 90.2325 90.8066 90.2325L91.8201 90.8478L91.6916 89.9853Z" fill="#A12CA3"/>
</g>
<defs>
<filter id="filter0_f_39_13343" x="-0.000263214" y="1.14441e-05" width="172.042" height="141.297" filterUnits="userSpaceOnUse" color-interpolation-filters="sRGB">
<feFlood flood-opacity="0" result="BackgroundImageFix"/>
<feBlend mode="normal" in="SourceGraphic" in2="BackgroundImageFix" result="shape"/>
<feGaussianBlur stdDeviation="13.7267" result="effect1_foregroundBlur_39_13343"/>
</filter>
</defs>
</svg>
