<svg width="212" height="230" viewBox="0 0 212 230" fill="none" xmlns="http://www.w3.org/2000/svg">
<path d="M100.903 120.863C100.903 120.863 99.1692 128.329 87.5808 130.987C75.2533 133.814 62.191 134.053 58.4796 130.31C54.8187 126.616 53.3523 123.395 55.3068 117.543C57.1697 111.964 56.4199 106.353 64.0459 106.234C71.4572 106.119 89.541 111.151 95.4362 113.029C101.285 114.892 102.255 118.084 100.903 120.863Z" fill="#3F76F8"/>
<path d="M91.321 115.803C90.906 115.605 76.6697 108.163 74.4649 109.615C72.2167 111.095 73.2705 111.706 78.7044 113.552C84.1073 115.388 91.321 115.803 91.321 115.803Z" fill="#95B5FF"/>
<path d="M66.3527 130.028C63.1058 126.728 61.7837 123.827 63.4315 118.484C65.008 113.371 64.2878 108.244 71.0186 108.026C74.6751 107.908 81.2902 109.215 87.3183 110.674C79.5531 108.573 69.2105 106.155 64.0465 106.235C56.4206 106.354 57.1691 111.965 55.3075 117.544C53.3528 123.398 54.8193 126.617 58.4815 130.311C61.5833 133.44 71.299 133.785 81.6669 132.135C74.5904 132.855 68.5704 132.283 66.3527 130.028Z" fill="#3D22ED"/>
<path d="M95.5525 118.234C91.9885 126.203 89.0774 130.042 82.8169 129.864C76.4245 129.683 72.2323 131.105 69.0958 128.746C65.9787 126.4 65.4203 123.229 65.9248 120.978C66.4207 118.767 67.2502 117.875 72.1696 119.266C77.054 120.646 83.6734 122.348 86.6486 121.335C89.5696 120.339 95.5525 118.234 95.5525 118.234Z" fill="#95B5FF"/>
<path d="M94.0648 117.526C94.0648 117.526 86.687 120.045 83.58 119.871C80.4426 119.695 70.3798 117.575 69.9849 116.375C69.5933 115.183 68.1317 113.711 71.3681 113.171C74.5532 112.64 81.0557 116.602 83.2136 116.558C85.355 116.513 94.0648 117.526 94.0648 117.526Z" fill="#95B5FF"/>
<path d="M70.9752 109.186C69.8046 109.873 68.1293 109.128 68.4205 110.054C68.714 110.986 70.4972 111.15 70.5079 111.789C70.5184 112.43 71.3912 112.766 71.8601 112.103C72.3263 111.444 72.3296 108.39 70.9752 109.186Z" fill="#95B5FF"/>
<path d="M68.7494 116.668C68.3042 117.627 66.5944 118.384 65.9516 117.683C65.3101 116.984 65.9268 115.885 65.8212 114.84C65.7163 113.803 65.3779 111.742 66.5829 111.566C67.7828 111.389 69.1916 115.715 68.7494 116.668Z" fill="#95B5FF"/>
<path d="M100.69 120.466C100.69 120.466 108.3 90.3855 87.0379 76.1929C66.5142 62.493 57.0691 62.2316 56.203 67.1885C55.298 72.3628 64.1189 76.0902 62.3456 78.9722C60.5206 81.9365 48.5033 86.2732 53.6045 93.3795C58.8869 100.736 100.69 120.466 100.69 120.466Z" fill="#3F76F8"/>
<path d="M53.6058 93.3796C54.7026 94.9082 57.4086 96.9869 61.0009 99.3178C61.4591 98.7993 61.3839 97.9113 60.3141 96.4427C55.0978 89.2843 66.8827 84.8405 68.6162 81.8354C70.3017 78.9143 61.4883 75.1888 62.2597 69.9543C62.7317 66.7561 66.697 65.6883 74.6814 68.7974C70.562 66.6786 67.1879 65.3755 64.5023 64.7264C64.4998 64.7262 64.4973 64.7247 64.4936 64.7244C64.008 64.6072 63.5453 64.5123 63.103 64.4368C63.0992 64.4365 63.0942 64.4348 63.0904 64.4346C62.6482 64.359 62.2288 64.3058 61.8311 64.2707C61.8286 64.2705 61.8248 64.2702 61.8248 64.2702C61.6267 64.2527 61.4332 64.241 61.2459 64.2325C61.2422 64.2323 61.2371 64.2319 61.2333 64.2317C60.8625 64.2163 60.5133 64.2218 60.1836 64.2424C60.1709 64.243 60.1581 64.2449 60.1454 64.2454C59.8257 64.2681 59.5266 64.3074 59.2468 64.3633C59.2302 64.3663 59.2134 64.3707 59.1968 64.3737C58.9234 64.43 58.6694 64.5014 58.4335 64.5893C58.4154 64.5964 58.3986 64.6021 58.3817 64.6093C58.2649 64.654 58.1532 64.7004 58.0462 64.7527L58.041 64.7551C57.938 64.8049 57.8397 64.8592 57.7439 64.9164C57.7281 64.9264 57.7111 64.9349 57.6953 64.9449C57.6007 65.0036 57.511 65.064 57.4248 65.1287C57.4143 65.1363 57.4062 65.1441 57.3956 65.1517C57.3186 65.2115 57.2453 65.2744 57.1743 65.3401C57.161 65.3517 57.1477 65.3633 57.1356 65.3749C57.0618 65.446 56.9916 65.5202 56.9263 65.5974C56.9141 65.6118 56.9031 65.6263 56.8921 65.6408C56.8348 65.7116 56.78 65.7841 56.7288 65.8595C56.7204 65.8728 56.7109 65.8846 56.7025 65.8978C56.647 65.9813 56.5964 66.0678 56.5495 66.1574C56.5396 66.1761 56.5295 66.1962 56.5195 66.2162C56.478 66.3006 56.4388 66.3866 56.4033 66.4755C56.399 66.4849 56.3947 66.4943 56.3915 66.5051C56.3544 66.6009 56.3233 66.7012 56.2935 66.8016C56.287 66.8261 56.2806 66.8492 56.2742 66.8736C56.2467 66.977 56.2218 67.0818 56.2029 67.1913C56.092 67.8259 56.1307 68.4416 56.2795 69.0385C56.3538 69.3383 56.4564 69.6317 56.5821 69.9211C56.6449 70.0665 56.7129 70.2095 56.7872 70.3529C57.0821 70.9236 57.4606 71.475 57.882 72.0072C58.5152 72.8084 59.2462 73.5649 59.9388 74.2801C60.4027 74.7584 60.8485 75.2176 61.2382 75.6604C61.336 75.7708 61.43 75.881 61.5202 75.9895C62.4225 77.08 62.9069 78.0663 62.3467 78.975C60.5219 81.9366 48.5033 86.2719 53.6058 93.3796Z" fill="#3D22ED"/>
<path d="M98.7618 113.94C98.7618 113.94 70.3923 83.9989 66.7432 86.6269C62.9736 89.3423 60.9447 93.4858 66.3041 98.2112C71.7517 103.014 86.9841 112.241 91.6573 113.321C96.2954 114.391 98.7618 113.94 98.7618 113.94Z" fill="#95B5FF"/>
<path d="M98.9413 109.715C98.9413 109.715 73.5748 88.9372 72.4219 86.0487C71.2013 82.9894 75.5207 82.322 74.0805 79.4209C72.6641 76.5699 75.1091 77.2775 78.8351 78.7068C82.5549 80.1329 98.1042 100.5 98.9413 109.715Z" fill="#95B5FF"/>
<path d="M98.6121 100.45C98.6121 100.45 97.782 84.6723 88.2047 78.5799C78.7572 72.5696 75.9111 69.8546 74.2952 71.7037C72.6456 73.5907 76.2427 75.3684 79.8869 77.1658C83.5347 78.9662 92.8501 90.0092 93.5457 92.5058C94.2555 95.0434 98.6121 100.45 98.6121 100.45Z" fill="#95B5FF"/>
<path d="M71.72 68.8033C68.8907 68.3618 66.5174 67.0598 65.6318 68.5168C64.7322 69.9949 67.8599 72.7124 66.7708 73.1924C65.6727 73.676 67.6089 75.7941 69.7441 75.4788C71.8575 75.1675 72.8666 73.5473 72.5634 72.273C72.2646 71.0101 73.2905 69.0491 71.72 68.8033Z" fill="#95B5FF"/>
<path d="M71.4094 76.5182C69.8027 76.4623 68.2966 76.088 68.42 76.7744C68.5445 77.4651 71.0037 78.8158 70.768 79.3936C70.5308 79.974 71.1346 80.7123 71.7785 80.544C72.4185 80.3769 73.4199 76.5889 71.4094 76.5182Z" fill="#95B5FF"/>
<path d="M73.6849 74.7357C72.9375 74.9413 71.811 75.2306 72.5398 75.8236C73.2698 76.4182 74.8801 76.6556 75.5481 76.4641C76.2135 76.2738 74.6166 74.4803 73.6849 74.7357Z" fill="#95B5FF"/>
<path d="M70.4829 85.7881C68.7173 86.2764 67.3354 85.4552 67.6293 84.7471C67.9217 84.0431 70.1009 83.6892 70.0115 83.03C69.9219 82.3735 70.0529 82.0765 70.7531 81.9881C71.4508 81.8996 71.6931 85.4533 70.4829 85.7881Z" fill="#95B5FF"/>
<path d="M98.1743 119.561C98.1743 119.561 93.7402 125.74 99.2401 136.553C105.09 148.054 113.338 158.464 118.517 158.963C123.626 159.455 126.967 158.529 130.059 153.219C133.006 148.157 137.661 145.127 132.831 139.063C128.135 133.17 112.728 122.218 107.529 118.802C102.368 115.41 99.3689 116.708 98.1743 119.561Z" fill="#3F76F8"/>
<path d="M108.119 123.82C108.534 124.019 123.252 130.394 123.595 133.062C123.944 135.783 122.811 135.348 117.931 132.273C113.081 129.216 108.119 123.82 108.119 123.82Z" fill="#95B5FF"/>
<path d="M113.649 152.6C118.197 153.021 121.208 152.187 124.118 147.446C126.904 142.909 131.181 140.169 127 134.744C124.729 131.796 119.491 127.446 114.516 123.656C121.087 128.397 129.558 134.957 132.829 139.064C137.66 145.128 133.005 148.16 130.057 153.22C126.965 158.53 123.624 159.456 118.516 158.964C114.188 158.547 107.664 151.143 102.202 141.938C106.232 147.955 110.542 152.313 113.649 152.6Z" fill="#3D22ED"/>
<path d="M103.581 122.068C99.9536 130.006 98.9769 134.767 103.147 139.569C107.405 144.47 109.053 148.679 112.831 149.619C116.586 150.554 119.305 148.946 120.653 147.099C121.977 145.284 122.105 144.057 117.898 141.09C113.72 138.146 108.185 134.046 107.018 131.057C105.874 128.122 103.581 122.068 103.581 122.068Z" fill="#95B5FF"/>
<path d="M105.069 122.777C105.069 122.777 107.955 130.194 110.089 132.521C112.244 134.871 120.312 141.403 121.46 140.939C122.599 140.478 124.638 140.675 122.952 137.786C121.293 134.942 114.151 132.394 112.791 130.672C111.441 128.963 105.069 122.777 105.069 122.777Z" fill="#95B5FF"/>
<path d="M126.167 135.527C126.41 136.888 128.045 137.724 127.168 138.092C126.287 138.463 125.013 137.169 124.531 137.572C124.047 137.978 123.234 137.51 123.425 136.714C123.614 135.923 125.883 133.951 126.167 135.527Z" fill="#95B5FF"/>
<path d="M122.035 142.1C121.61 143.068 122.149 144.899 123.085 144.951C124.018 145.005 124.439 143.811 125.284 143.219C126.123 142.632 127.874 141.569 127.228 140.508C126.585 139.454 122.459 141.137 122.035 142.1Z" fill="#95B5FF"/>
<path d="M98.7803 119.594C98.7803 119.594 117.354 94.5202 142.112 101.347C166.011 107.937 172.294 114.858 168.984 118.699C165.53 122.707 156.944 118.486 155.837 121.672C154.698 124.95 159.05 136.762 150.22 137.507C141.081 138.277 98.7803 119.594 98.7803 119.594Z" fill="#3F76F8"/>
<path d="M150.22 137.506C148.322 137.666 144.958 136.974 140.826 135.777C140.936 135.099 141.678 134.583 143.511 134.442C152.454 133.749 148.336 122.044 149.565 118.807C150.76 115.661 159.339 119.88 162.927 115.932C165.12 113.52 163.4 109.857 155.835 105.863C160.14 107.591 163.328 109.284 165.562 110.884C165.564 110.886 165.566 110.887 165.569 110.889C165.972 111.178 166.346 111.464 166.688 111.748C166.692 111.751 166.695 111.752 166.698 111.755C167.041 112.039 167.354 112.319 167.638 112.595L167.642 112.6C167.783 112.738 167.917 112.874 168.044 113.01C168.046 113.013 168.05 113.016 168.052 113.019C168.302 113.288 168.524 113.553 168.719 113.814C168.726 113.824 168.734 113.834 168.741 113.845C168.929 114.098 169.091 114.348 169.228 114.594C169.236 114.609 169.244 114.624 169.252 114.639C169.384 114.88 169.491 115.117 169.576 115.35C169.582 115.367 169.588 115.384 169.594 115.402C169.635 115.519 169.67 115.633 169.699 115.747L169.7 115.753C169.728 115.863 169.749 115.97 169.765 116.078C169.768 116.096 169.772 116.115 169.774 116.133C169.789 116.24 169.799 116.348 169.804 116.454C169.804 116.467 169.803 116.479 169.804 116.49C169.807 116.588 169.806 116.683 169.799 116.778C169.798 116.795 169.797 116.812 169.796 116.829C169.788 116.931 169.776 117.031 169.758 117.129C169.754 117.147 169.751 117.165 169.747 117.183C169.729 117.271 169.708 117.359 169.683 117.445C169.678 117.46 169.675 117.475 169.67 117.49C169.64 117.585 169.605 117.68 169.565 117.772C169.556 117.793 169.548 117.813 169.539 117.833C169.5 117.919 169.458 118.003 169.412 118.086C169.406 118.095 169.402 118.105 169.397 118.114C169.347 118.203 169.29 118.291 169.229 118.378C169.215 118.399 169.2 118.419 169.185 118.439C169.121 118.526 169.056 118.613 168.982 118.696C168.559 119.188 168.055 119.555 167.492 119.827C167.211 119.963 166.915 120.076 166.609 120.169C166.455 120.215 166.3 120.256 166.14 120.292C165.504 120.438 164.831 120.51 164.145 120.536C163.113 120.575 162.052 120.515 161.048 120.454C160.376 120.414 159.73 120.374 159.135 120.367C158.985 120.366 158.839 120.365 158.697 120.368C157.266 120.393 156.185 120.665 155.835 121.67C154.697 124.949 159.048 136.762 150.22 137.506Z" fill="#3D22ED"/>
<path d="M105.113 116.841C105.113 116.841 146.735 118.865 147.033 123.297C147.34 127.875 145.413 132.064 138.277 131.083C131.022 130.085 114.018 124.589 110.169 121.776C106.349 118.982 105.113 116.841 105.113 116.841Z" fill="#95B5FF"/>
<path d="M108.294 113.986C108.294 113.986 140.832 119.655 143.828 118.66C147.001 117.607 144.742 113.935 147.931 113.15C151.067 112.378 148.942 110.998 145.429 109.121C141.923 107.249 116.023 108.684 108.294 113.986Z" fill="#95B5FF"/>
<path d="M115.735 108.269C115.735 108.269 128.58 98.7376 139.498 102.006C150.268 105.231 154.219 105.618 153.816 108.021C153.406 110.475 149.705 108.917 145.955 107.34C142.202 105.759 127.591 105.875 125.195 106.959C122.759 108.061 115.735 108.269 115.735 108.269Z" fill="#95B5FF"/>
<path d="M157.736 108.09C159.901 109.93 162.446 110.873 161.879 112.476C161.305 114.103 157.171 113.503 157.498 114.63C157.827 115.765 154.93 115.674 153.8 113.869C152.683 112.082 153.298 110.283 154.487 109.689C155.664 109.102 156.536 107.069 157.736 108.09Z" fill="#95B5FF"/>
<path d="M151.917 113.288C152.995 114.458 154.256 115.347 153.641 115.698C153.023 116.049 150.385 115.072 150.086 115.621C149.786 116.172 148.822 116.194 148.538 115.604C148.256 115.014 150.568 111.825 151.917 113.288Z" fill="#95B5FF"/>
<path d="M151.842 110.435C152.163 111.128 152.661 112.159 151.729 111.995C150.795 111.83 149.574 110.774 149.293 110.149C149.015 109.527 151.442 109.572 151.842 110.435Z" fill="#95B5FF"/>
<path d="M145.284 119.952C146.039 121.592 147.57 122.1 147.933 121.425C148.294 120.751 147.167 118.887 147.74 118.532C148.31 118.177 148.458 117.887 148.076 117.305C147.693 116.722 144.765 118.828 145.284 119.952Z" fill="#95B5FF"/>
<path d="M100.51 125.322C94.8988 137.491 88.5479 147.67 86.86 146.899C85.1721 146.127 89.0337 134.813 94.927 122.772C100.281 111.834 105.423 104.2 106.841 104.848C108.261 105.496 105.608 114.267 100.51 125.322Z" fill="#972CA3"/>
<path d="M109.021 106.862C108.176 108.696 106.31 109.668 104.864 109.008C103.419 108.347 102.978 106.32 103.865 104.506C104.739 102.722 106.574 101.816 107.976 102.457C109.379 103.099 109.853 105.058 109.021 106.862Z" fill="#972CA3"/>
<path d="M107.197 102.9C107.197 102.9 109.321 95.9714 107.495 94.1071C105.684 92.2577 106.294 91.2471 107.714 92.619C109.143 93.9983 109.715 98.8558 108.416 100.809C107.093 102.801 107.899 103.772 107.899 103.772L106.377 103.947L107.197 102.9Z" fill="#972CA3"/>
<path d="M108.261 102.978C108.261 102.978 112.341 96.9761 114.966 97.1686C117.57 97.3583 117.975 96.2563 115.995 96.0576C114.003 95.858 109.828 98.5115 109.123 100.731C108.403 102.993 107.129 103.003 107.129 103.003L107.961 104.262L108.261 102.978Z" fill="#972CA3"/>
<g filter="url(#filter0_f_39_13258)">
<path d="M91.0147 124.421C91.0147 124.421 89.2806 131.888 77.6921 134.546C65.3646 137.373 52.3023 137.612 48.5909 133.868C44.93 130.175 43.4636 126.954 45.4181 121.102C47.2811 115.523 46.5313 109.912 54.1572 109.793C61.5685 109.677 79.6523 114.71 85.5475 116.587C91.3966 118.45 92.3661 121.642 91.0147 124.421Z" fill="#3F76F8"/>
<path d="M81.4324 119.361C81.0174 119.163 66.781 111.721 64.5762 113.173C62.328 114.653 63.3818 115.264 68.8158 117.11C74.2186 118.946 81.4324 119.361 81.4324 119.361Z" fill="#95B5FF"/>
<path d="M56.464 133.588C53.2172 130.288 51.895 127.386 53.5428 122.044C55.1193 116.93 54.3991 111.804 61.1299 111.586C64.7864 111.467 71.4015 112.775 77.4296 114.233C69.6644 112.133 59.3218 109.714 54.1579 109.794C46.5319 109.913 47.2805 115.525 45.4188 121.103C43.4642 126.957 44.9307 130.177 48.5929 133.87C51.6946 136.999 61.4103 137.344 71.7782 135.694C64.7017 136.415 58.6817 135.842 56.464 133.588Z" fill="#3D22ED"/>
<path d="M85.6638 121.793C82.0998 129.762 79.1888 133.6 72.9282 133.423C66.5359 133.242 62.3437 134.664 59.2071 132.304C56.0901 129.958 55.5316 126.787 56.0361 124.536C56.532 122.325 57.3615 121.433 62.2809 122.824C67.1653 124.204 73.7847 125.906 76.7599 124.894C79.6809 123.898 85.6638 121.793 85.6638 121.793Z" fill="#95B5FF"/>
<path d="M84.1761 121.085C84.1761 121.085 76.7984 123.604 73.6913 123.43C70.5539 123.254 60.4912 121.134 60.0962 119.933C59.7046 118.742 58.243 117.269 61.4794 116.729C64.6645 116.198 71.167 120.161 73.3249 120.117C75.4663 120.072 84.1761 121.085 84.1761 121.085Z" fill="#95B5FF"/>
<path d="M61.0866 112.744C59.916 113.431 58.2406 112.686 58.5318 113.612C58.8253 114.544 60.6085 114.708 60.6192 115.347C60.6297 115.988 61.5025 116.324 61.9714 115.661C62.4376 115.002 62.4409 111.948 61.0866 112.744Z" fill="#95B5FF"/>
<path d="M58.8607 120.226C58.4156 121.186 56.7057 121.942 56.063 121.241C55.4214 120.542 56.0381 119.443 55.9325 118.398C55.8277 117.361 55.4892 115.3 56.6942 115.124C57.8941 114.948 59.303 119.273 58.8607 120.226Z" fill="#95B5FF"/>
<path d="M90.8037 124.025C90.8037 124.025 98.4132 93.9449 77.1512 79.7523C56.6275 66.0524 47.1824 65.7911 46.3163 70.7479C45.4113 75.9222 54.2322 79.6496 52.4589 82.5316C50.6339 85.4959 38.6165 89.8327 43.7178 96.939C49.0002 104.296 90.8037 124.025 90.8037 124.025Z" fill="#3F76F8"/>
<path d="M43.719 96.9385C44.8159 98.467 47.5219 100.546 51.1142 102.877C51.5724 102.358 51.4972 101.47 50.4274 100.002C45.2111 92.8432 56.996 88.3994 58.7294 85.3943C60.4149 82.4731 51.6015 78.7476 52.373 73.5131C52.8449 70.3149 56.8102 69.2472 64.7947 72.3562C60.6753 70.2375 57.3012 68.9344 54.6156 68.2853C54.6131 68.2851 54.6106 68.2835 54.6068 68.2833C54.1213 68.1661 53.6586 68.0712 53.2163 67.9956C53.2125 67.9954 53.2075 67.9937 53.2037 67.9934C52.7615 67.9179 52.342 67.8646 51.9444 67.8295C51.9419 67.8293 51.9381 67.8291 51.9381 67.8291C51.7399 67.8115 51.5465 67.7999 51.3592 67.7914C51.3554 67.7911 51.3504 67.7908 51.3466 67.7905C50.9758 67.7752 50.6266 67.7806 50.2969 67.8013C50.2841 67.8018 50.2714 67.8037 50.2586 67.8042C49.9389 67.8269 49.6399 67.8663 49.3601 67.9221C49.3435 67.9251 49.3267 67.9295 49.3101 67.9326C49.0367 67.9888 48.7827 68.0602 48.5468 68.1481C48.5287 68.1552 48.5118 68.161 48.4949 68.1681C48.3782 68.2129 48.2665 68.2593 48.1595 68.3116L48.1543 68.314C48.0513 68.3638 47.953 68.418 47.8572 68.4752C47.8414 68.4852 47.8244 68.4938 47.8086 68.5038C47.7139 68.5624 47.6243 68.6228 47.5381 68.6876C47.5275 68.6951 47.5195 68.7029 47.5089 68.7105C47.4319 68.7703 47.3586 68.8332 47.2876 68.899C47.2743 68.9105 47.261 68.9221 47.2489 68.9337C47.1751 69.0049 47.1049 69.079 47.0396 69.1563C47.0274 69.1707 47.0164 69.1851 47.0054 69.1996C46.9481 69.2705 46.8933 69.3429 46.8421 69.4183C46.8337 69.4316 46.8241 69.4434 46.8158 69.4567C46.7603 69.5401 46.7097 69.6267 46.6628 69.7162C46.6528 69.7349 46.6428 69.755 46.6328 69.7751C46.5912 69.8595 46.5521 69.9454 46.5166 70.0343C46.5123 70.0437 46.5079 70.0531 46.5048 70.064C46.4676 70.1597 46.4366 70.26 46.4068 70.3604C46.4003 70.3849 46.3939 70.408 46.3875 70.4325C46.36 70.5358 46.335 70.6407 46.3161 70.7501C46.2053 71.3848 46.2439 72.0005 46.3928 72.5973C46.4671 72.8971 46.5697 73.1905 46.6954 73.4799C46.7581 73.6253 46.8262 73.7683 46.9005 73.9117C47.1954 74.4824 47.5739 75.0339 47.9953 75.5661C48.6285 76.3672 49.3595 77.1237 50.0521 77.839C50.5159 78.3173 50.9618 78.7764 51.3515 79.2193C51.4493 79.3297 51.5432 79.4398 51.6335 79.5483C52.5357 80.6389 53.0202 81.6251 52.46 82.5339C50.6351 85.4954 38.6166 89.8307 43.719 96.9385Z" fill="#3D22ED"/>
<path d="M88.8731 117.5C88.8731 117.5 60.5036 87.5584 56.8545 90.1864C53.0849 92.9017 51.056 97.0452 56.4154 101.771C61.863 106.574 77.0955 115.801 81.7686 116.88C86.4068 117.95 88.8731 117.5 88.8731 117.5Z" fill="#95B5FF"/>
<path d="M89.0546 113.273C89.0546 113.273 63.6881 92.4956 62.5352 89.607C61.3146 86.5478 65.6339 85.8804 64.1938 82.9793C62.7774 80.1283 65.2224 80.8359 68.9484 82.2652C72.6682 83.6913 88.2175 104.058 89.0546 113.273Z" fill="#95B5FF"/>
<path d="M88.7254 104.009C88.7254 104.009 87.8953 88.2316 78.318 82.1392C68.8705 76.129 66.0243 73.4139 64.4085 75.263C62.7589 77.15 66.356 78.9277 70.0001 80.7251C73.648 82.5256 82.9634 93.5686 83.659 96.0651C84.3688 98.6027 88.7254 104.009 88.7254 104.009Z" fill="#95B5FF"/>
<path d="M61.8333 72.3622C59.004 71.9207 56.6307 70.6187 55.745 72.0757C54.8455 73.5539 57.9731 76.2714 56.8841 76.7514C55.786 77.235 57.7222 79.353 59.8574 79.0377C61.9707 78.7265 62.9799 77.1063 62.6767 75.8319C62.3779 74.569 63.4038 72.6081 61.8333 72.3622Z" fill="#95B5FF"/>
<path d="M61.5227 80.0776C59.916 80.0217 58.4098 79.6474 58.5333 80.3339C58.6577 81.0246 61.117 82.3752 60.8813 82.953C60.6441 83.5335 61.2479 84.2718 61.8918 84.1035C62.5317 83.9363 63.5332 80.1483 61.5227 80.0776Z" fill="#95B5FF"/>
<path d="M63.7962 78.2952C63.0488 78.5007 61.9224 78.79 62.6511 79.3831C63.3811 79.9776 64.9914 80.2151 65.6594 80.0235C66.3248 79.8332 64.7279 78.0398 63.7962 78.2952Z" fill="#95B5FF"/>
<path d="M60.5943 89.3476C58.8286 89.8359 57.4467 89.0146 57.7406 88.3065C58.033 87.6025 60.2123 87.2487 60.1228 86.5894C60.0332 85.9329 60.1642 85.6359 60.8644 85.5476C61.5621 85.4591 61.8045 89.0127 60.5943 89.3476Z" fill="#95B5FF"/>
<path d="M88.2876 123.12C88.2876 123.12 83.8535 129.298 89.3533 140.111C95.2036 151.612 103.451 162.023 108.631 162.522C113.739 163.014 117.08 162.088 120.172 156.777C123.12 151.716 127.775 148.686 122.944 142.622C118.248 136.729 102.841 125.777 97.6422 122.36C92.4812 118.969 89.4821 120.266 88.2876 123.12Z" fill="#3F76F8"/>
<path d="M98.234 127.379C98.649 127.577 113.367 133.953 113.71 136.621C114.06 139.342 112.926 138.907 108.047 135.832C103.196 132.775 98.234 127.379 98.234 127.379Z" fill="#95B5FF"/>
<path d="M103.76 156.159C108.308 156.58 111.319 155.746 114.229 151.005C117.015 146.468 121.292 143.728 117.112 138.303C114.841 135.355 109.602 131.005 104.627 127.215C111.199 131.956 119.67 138.516 122.941 142.623C127.771 148.687 123.116 151.719 120.169 156.778C117.076 162.089 113.736 163.015 108.627 162.523C104.299 162.106 97.7752 154.702 92.3135 145.497C96.3437 151.513 100.653 155.872 103.76 156.159Z" fill="#3D22ED"/>
<path d="M93.6938 125.626C90.0669 133.564 89.0901 138.325 93.2603 143.127C97.5187 148.028 99.1663 152.237 102.944 153.178C106.699 154.112 109.418 152.505 110.766 150.657C112.091 148.842 112.219 147.615 108.011 144.649C103.834 141.704 98.2979 137.605 97.1316 134.616C95.9877 131.681 93.6938 125.626 93.6938 125.626Z" fill="#95B5FF"/>
<path d="M95.1802 126.336C95.1802 126.336 98.0665 133.753 100.2 136.08C102.355 138.43 110.424 144.962 111.571 144.498C112.71 144.036 114.749 144.234 113.063 141.345C111.404 138.501 104.262 135.953 102.902 134.231C101.553 132.522 95.1802 126.336 95.1802 126.336Z" fill="#95B5FF"/>
<path d="M116.28 139.085C116.523 140.447 118.158 141.282 117.281 141.651C116.4 142.022 115.126 140.727 114.644 141.131C114.16 141.537 113.347 141.068 113.538 140.273C113.728 139.482 115.996 137.509 116.28 139.085Z" fill="#95B5FF"/>
<path d="M112.15 145.659C111.725 146.627 112.264 148.458 113.2 148.51C114.133 148.564 114.554 147.37 115.399 146.778C116.238 146.191 117.99 145.128 117.343 144.067C116.7 143.013 112.574 144.695 112.15 145.659Z" fill="#95B5FF"/>
<path d="M88.8916 123.152C88.8916 123.152 107.466 98.0786 132.223 104.905C156.123 111.496 162.405 118.416 159.096 122.257C155.641 126.266 147.055 122.045 145.948 125.23C144.809 128.508 149.162 140.32 140.332 141.065C131.192 141.835 88.8916 123.152 88.8916 123.152Z" fill="#3F76F8"/>
<path d="M140.331 141.064C138.433 141.224 135.07 140.532 130.937 139.336C131.047 138.658 131.789 138.142 133.623 138C142.565 137.307 138.448 125.602 139.677 122.365C140.871 119.22 149.45 123.439 153.038 119.49C155.232 117.078 153.511 113.415 145.946 109.421C150.251 111.15 153.44 112.843 155.673 114.443C155.675 114.444 155.678 114.446 155.68 114.447C156.084 114.736 156.457 115.023 156.8 115.306C156.803 115.309 156.806 115.311 156.81 115.314C157.152 115.597 157.465 115.877 157.749 116.154L157.754 116.158C157.894 116.296 158.029 116.433 158.155 116.569C158.158 116.571 158.161 116.574 158.164 116.577C158.414 116.846 158.636 117.112 158.83 117.372C158.837 117.383 158.846 117.393 158.853 117.403C159.04 117.657 159.202 117.907 159.339 118.153C159.347 118.167 159.355 118.183 159.363 118.197C159.495 118.439 159.603 118.676 159.687 118.908C159.694 118.925 159.699 118.942 159.706 118.961C159.746 119.077 159.781 119.192 159.81 119.306L159.811 119.311C159.839 119.421 159.86 119.529 159.877 119.637C159.879 119.655 159.883 119.673 159.885 119.691C159.9 119.799 159.911 119.906 159.915 120.013C159.915 120.025 159.915 120.038 159.915 120.049C159.919 120.146 159.917 120.241 159.91 120.336C159.91 120.353 159.908 120.371 159.908 120.387C159.899 120.489 159.887 120.59 159.869 120.688C159.865 120.706 159.862 120.723 159.858 120.741C159.841 120.83 159.819 120.917 159.794 121.004C159.789 121.019 159.786 121.034 159.781 121.049C159.752 121.144 159.716 121.238 159.676 121.331C159.668 121.351 159.659 121.371 159.65 121.391C159.611 121.477 159.569 121.562 159.523 121.644C159.517 121.654 159.513 121.663 159.509 121.672C159.458 121.762 159.401 121.849 159.34 121.937C159.326 121.958 159.311 121.977 159.296 121.997C159.233 122.084 159.167 122.171 159.094 122.255C158.67 122.747 158.166 123.114 157.604 123.386C157.322 123.522 157.026 123.635 156.72 123.728C156.567 123.774 156.411 123.815 156.252 123.851C155.615 123.996 154.943 124.068 154.256 124.094C153.224 124.134 152.163 124.073 151.159 124.012C150.488 123.972 149.842 123.933 149.246 123.926C149.096 123.924 148.951 123.924 148.808 123.927C147.377 123.952 146.296 124.224 145.946 125.228C144.809 128.507 149.159 140.321 140.331 141.064Z" fill="#3D22ED"/>
<path d="M95.2243 120.399C95.2243 120.399 136.846 122.424 137.144 126.856C137.451 131.434 135.524 135.623 128.388 134.641C121.134 133.644 104.129 128.147 100.28 125.334C96.4602 122.541 95.2243 120.399 95.2243 120.399Z" fill="#95B5FF"/>
<path d="M98.405 117.545C98.405 117.545 130.944 123.215 133.94 122.22C137.112 121.166 134.853 117.495 138.043 116.709C141.178 115.937 139.053 114.558 135.54 112.681C132.035 110.808 106.135 112.244 98.405 117.545Z" fill="#95B5FF"/>
<path d="M105.847 111.828C105.847 111.828 118.692 102.297 129.609 105.565C140.379 108.79 144.33 109.178 143.928 111.581C143.517 114.034 139.816 112.477 136.067 110.899C132.314 109.318 117.702 109.435 115.306 110.519C112.87 111.62 105.847 111.828 105.847 111.828Z" fill="#95B5FF"/>
<path d="M147.847 111.649C150.012 113.489 152.557 114.431 151.99 116.034C151.416 117.662 147.283 117.062 147.61 118.188C147.938 119.323 145.041 119.233 143.912 117.428C142.794 115.64 143.41 113.841 144.598 113.248C145.775 112.66 146.647 110.628 147.847 111.649Z" fill="#95B5FF"/>
<path d="M142.028 116.847C143.106 118.017 144.368 118.906 143.753 119.257C143.134 119.608 140.496 118.631 140.197 119.18C139.897 119.731 138.933 119.753 138.649 119.162C138.367 118.573 140.679 115.384 142.028 116.847Z" fill="#95B5FF"/>
<path d="M141.953 113.995C142.274 114.688 142.773 115.719 141.841 115.555C140.906 115.39 139.685 114.334 139.405 113.709C139.126 113.087 141.553 113.132 141.953 113.995Z" fill="#95B5FF"/>
<path d="M135.395 123.51C136.151 125.15 137.681 125.659 138.044 124.983C138.406 124.31 137.278 122.446 137.852 122.09C138.421 121.736 138.57 121.445 138.188 120.863C137.805 120.281 134.877 122.386 135.395 123.51Z" fill="#95B5FF"/>
<path d="M90.6214 128.88C85.0101 141.049 78.6592 151.228 76.9713 150.457C75.2835 149.686 79.1451 138.371 85.0383 126.331C90.3921 115.392 95.5342 107.758 96.9525 108.406C98.3721 109.054 95.7191 117.825 90.6214 128.88Z" fill="#972CA3"/>
<path d="M99.1326 110.421C98.2878 112.255 96.421 113.227 94.9755 112.566C93.53 111.906 93.0894 109.879 93.9763 108.065C94.8501 106.281 96.6851 105.375 98.0873 106.016C99.4908 106.658 99.9644 108.617 99.1326 110.421Z" fill="#972CA3"/>
<path d="M97.3059 106.46C97.3059 106.46 99.4307 99.5318 97.6044 97.6676C95.7937 95.8182 96.4029 94.8075 97.8233 96.1794C99.2521 97.5588 99.8239 102.416 98.5257 104.37C97.2024 106.362 98.0087 107.332 98.0087 107.332L96.4866 107.508L97.3059 106.46Z" fill="#972CA3"/>
<path d="M98.372 106.539C98.372 106.539 102.452 100.537 105.078 100.729C107.681 100.919 108.086 99.8168 106.106 99.618C104.114 99.4185 99.9396 102.072 99.234 104.291C98.5145 106.554 97.2402 106.563 97.2402 106.563L98.0721 107.822L98.372 106.539Z" fill="#972CA3"/>
</g>
<defs>
<filter id="filter0_f_39_13258" x="1.88325" y="27.1985" width="198.618" height="176.023" filterUnits="userSpaceOnUse" color-interpolation-filters="sRGB">
<feFlood flood-opacity="0" result="BackgroundImageFix"/>
<feBlend mode="normal" in="SourceGraphic" in2="BackgroundImageFix" result="shape"/>
<feGaussianBlur stdDeviation="20.2916" result="effect1_foregroundBlur_39_13258"/>
</filter>
</defs>
</svg>
