<svg width="94" height="94" viewBox="0 0 94 94" fill="none" xmlns="http://www.w3.org/2000/svg">
<path opacity="0.999" fill-rule="evenodd" clip-rule="evenodd" d="M11.2908 42.6855C11.0917 42.3023 10.7857 42.0576 10.3728 41.9511C9.63845 41.0943 8.84288 40.2988 7.9861 39.5644C5.19542 35.8161 3.57368 31.5935 3.12087 26.8964C2.99973 24.8126 3.03034 22.732 3.21267 20.6542C5.16983 10.3665 11.3508 4.46093 21.7556 2.93743C29.5709 1.95179 36.2109 4.24671 41.6756 9.8222C45.9379 15.2954 47.682 21.4764 46.908 28.3652C60.8813 33.5466 74.8344 38.779 88.7673 44.0624C91.0182 46.0045 91.3547 48.2381 89.7771 50.7636C89.4333 51.1692 89.0354 51.5057 88.5838 51.7734C79.4898 54.7232 70.3713 57.5994 61.2283 60.4023C60.9656 60.4877 60.7515 60.6408 60.5857 60.8613C57.7101 69.9778 54.8337 79.0962 51.9568 88.2167C51.0677 89.8974 49.66 90.7542 47.7341 90.787C45.8553 90.6437 44.509 89.7257 43.6951 88.0331C38.6123 74.2219 33.441 60.4524 28.1814 46.7245C22.6966 47.6159 17.5559 46.6673 12.7595 43.8788C12.2234 43.5216 11.7338 43.1237 11.2908 42.6855Z" fill="#0A0501"/>
<path fill-rule="evenodd" clip-rule="evenodd" d="M23.4082 11.6582C32.217 11.4419 37.1127 15.6951 38.0957 24.418C38.0345 24.6934 37.9732 24.9688 37.9121 25.2442C34.0134 23.7538 30.0968 22.3157 26.1621 20.9297C23.8574 20.5064 22.1744 21.3325 21.1132 23.4082C20.8393 24.3099 20.778 25.2278 20.9296 26.1622C22.3156 30.0969 23.7537 34.0135 25.2441 37.9122C18.3458 38.0833 13.9702 34.8399 12.1171 28.1817C11.144 23.7448 12.0008 19.7057 14.6874 16.0645C17.0529 13.4896 19.9597 12.0208 23.4082 11.6582Z" fill="#F3B506"/>
<path fill-rule="evenodd" clip-rule="evenodd" d="M22.3067 5.78329C26.3267 5.51267 30.1822 6.15525 33.8731 7.71103C39.6371 10.8781 42.9724 15.7433 43.879 22.3067C44.0104 23.964 43.9798 25.6164 43.7872 27.2638C42.8584 27.0868 41.9709 26.7807 41.1251 26.3458C41.4567 20.0037 39.1006 14.9549 34.0567 11.1993C28.7839 8.32739 23.3372 7.9602 17.7169 10.0977C11.2254 13.6233 8.25731 19.1004 8.81259 26.5294C9.83265 34.5873 14.3307 39.3914 22.3067 40.9415C23.653 41.0026 24.9995 41.0639 26.3458 41.1251C26.7796 41.9678 27.0857 42.8551 27.2638 43.7872C16.1157 44.6624 9.10852 39.7054 6.24228 28.9161C4.79894 21.3128 6.91026 14.9176 12.5763 9.73056C15.5036 7.60302 18.747 6.28726 22.3067 5.78329Z" fill="#FB3B37"/>
<path fill-rule="evenodd" clip-rule="evenodd" d="M24.3262 23.7755C24.8803 23.7452 25.431 23.7758 25.9785 23.8673C46.235 31.3946 66.4916 38.9219 86.7481 46.4493C88.1377 47.2909 88.1988 48.2088 86.9317 49.2032C78.058 51.9571 69.1842 54.711 60.3106 57.4649C59.4925 57.8282 58.7886 58.3485 58.1992 59.0255C57.5062 60.3688 56.9554 61.7764 56.5469 63.2481C54.1275 71.1513 51.6794 79.0458 49.2031 86.9317C48.4201 88.0456 47.5633 88.1069 46.6328 87.1153C39.0082 66.7505 31.4197 46.3716 23.8672 25.9786C23.6419 25.141 23.795 24.4066 24.3262 23.7755Z" fill="#FB3B37"/>
<path opacity="0.882" fill-rule="evenodd" clip-rule="evenodd" d="M3.21297 20.6543C3.03064 22.732 3.00004 24.8127 3.12117 26.8965C3.57399 31.5935 5.19573 35.8162 7.98641 39.5645C4.41966 35.3528 2.70612 30.4569 2.84578 24.877C2.8058 23.4266 2.9282 22.0191 3.21297 20.6543Z" fill="#DE3330"/>
<path opacity="0.027" fill-rule="evenodd" clip-rule="evenodd" d="M7.98633 39.5645C8.84311 40.2988 9.63867 41.0943 10.373 41.9512C9.39389 41.3393 8.5983 40.5436 7.98633 39.5645Z" fill="#D12E2B"/>
<path opacity="0.996" fill-rule="evenodd" clip-rule="evenodd" d="M10.373 41.9512C10.7859 42.0577 11.0919 42.3024 11.291 42.6855C10.8781 42.5791 10.5722 42.3343 10.373 41.9512Z" fill="#681C1A"/>
</svg>
