<svg width="205" height="253" viewBox="0 0 205 253" fill="none" xmlns="http://www.w3.org/2000/svg">
<g filter="url(#filter0_f_39_69270)">
<path fill-rule="evenodd" clip-rule="evenodd" d="M49.6493 37.254C49.6493 37.254 39.4201 39.6162 34.9634 44.1331C30.4808 48.6763 30.2208 53.5694 29.9242 59.152C29.789 61.6965 29.6462 64.3843 29.0925 67.2476C27.3535 76.2395 25.9515 90.49 25.9515 90.49C25.9515 90.49 25.0407 103.869 24.9222 112.455C24.8468 117.923 25.0712 122.168 25.2966 126.433C25.515 130.564 25.7343 134.712 25.6831 140.008L24.3966 167.465L23.6568 183.253C23.6568 183.253 22.2325 192.457 25.061 197.077C26.7267 199.798 28.6132 200.951 30.9986 202.409C31.6176 202.788 32.2702 203.186 32.9613 203.639C37.8683 206.849 41.8905 207.842 46.6039 209.005C48.6176 209.502 50.7574 210.03 53.1462 210.776C54.6408 211.242 56.017 211.682 57.3185 212.098C63.2849 214.004 67.6851 215.41 74.7604 216.604C84.5784 218.262 90.6427 218.146 99.8993 217.968C100.814 217.95 101.759 217.932 102.742 217.915C104.316 217.888 105.775 217.875 107.157 217.862C113.793 217.801 118.663 217.757 126.075 216.257C134.771 214.497 147.618 209.011 147.618 209.011C147.618 209.011 154.637 206.412 158.144 203.313C168.22 194.411 163.165 169.152 163.165 169.152C163.165 169.152 167.116 145.065 168.443 129.499C169.514 116.932 169.955 97.2375 169.955 97.2375C169.935 93.7304 170.075 90.6071 170.207 87.6683C170.552 79.9791 170.84 73.5526 168.054 64.8158C167.896 64.3208 167.745 63.8414 167.598 63.3755C165.944 58.1411 164.833 54.6228 161.222 50.0492C154.634 41.7058 146.608 40.5199 137.168 39.1253C134.129 38.6763 130.944 38.2056 127.613 37.4676C110.938 33.7729 83.9341 35.4209 83.9341 35.4209C83.9341 35.4209 70.132 33.1313 61.4123 34.3656C56.73 35.0283 49.6493 37.254 49.6493 37.254ZM73.6424 48.0093L64.8666 45.5343L63.4373 46.8432L64.7701 47.5936L69.5153 48.5038L73.578 49.3821L78.3232 50.2924L85.1802 49.9258L90.64 50.1816L95.5428 50.4113L101.003 50.6672L107.02 50.9491L112.479 51.2049L118.065 51.4667L122.717 51.6846L126.161 51.1581L128.891 51.286L130.971 50.6955L132.368 50.0731L132.432 48.7002L131.067 48.6363L128.273 49.8812L120.176 50.1897L109.131 49.6722L98.2116 49.1605L85.2445 48.5529L73.6424 48.0093Z" fill="black"/>
<path fill-rule="evenodd" clip-rule="evenodd" d="M49.6493 37.254C49.6493 37.254 39.4201 39.6162 34.9634 44.1331C30.4808 48.6763 30.2208 53.5694 29.9242 59.152C29.789 61.6965 29.6462 64.3843 29.0925 67.2476C27.3535 76.2395 25.9515 90.49 25.9515 90.49C25.9515 90.49 25.0407 103.869 24.9222 112.455C24.8468 117.923 25.0712 122.168 25.2966 126.433C25.515 130.564 25.7343 134.712 25.6831 140.008L24.3966 167.465L23.6568 183.253C23.6568 183.253 22.2325 192.457 25.061 197.077C26.7267 199.798 28.6132 200.951 30.9986 202.409C31.6176 202.788 32.2702 203.186 32.9613 203.639C37.8683 206.849 41.8905 207.842 46.6039 209.005C48.6176 209.502 50.7574 210.03 53.1462 210.776C54.6408 211.242 56.017 211.682 57.3185 212.098C63.2849 214.004 67.6851 215.41 74.7604 216.604C84.5784 218.262 90.6427 218.146 99.8993 217.968C100.814 217.95 101.759 217.932 102.742 217.915C104.316 217.888 105.775 217.875 107.157 217.862C113.793 217.801 118.663 217.757 126.075 216.257C134.771 214.497 147.618 209.011 147.618 209.011C147.618 209.011 154.637 206.412 158.144 203.313C168.22 194.411 163.165 169.152 163.165 169.152C163.165 169.152 167.116 145.065 168.443 129.499C169.514 116.932 169.955 97.2375 169.955 97.2375C169.935 93.7304 170.075 90.6071 170.207 87.6683C170.552 79.9791 170.84 73.5526 168.054 64.8158C167.896 64.3208 167.745 63.8414 167.598 63.3755C165.944 58.1411 164.833 54.6228 161.222 50.0492C154.634 41.7058 146.608 40.5199 137.168 39.1253C134.129 38.6763 130.944 38.2056 127.613 37.4676C110.938 33.7729 83.9341 35.4209 83.9341 35.4209C83.9341 35.4209 70.132 33.1313 61.4123 34.3656C56.73 35.0283 49.6493 37.254 49.6493 37.254ZM73.6424 48.0093L64.8666 45.5343L63.4373 46.8432L64.7701 47.5936L69.5153 48.5038L73.578 49.3821L78.3232 50.2924L85.1802 49.9258L90.64 50.1816L95.5428 50.4113L101.003 50.6672L107.02 50.9491L112.479 51.2049L118.065 51.4667L122.717 51.6846L126.161 51.1581L128.891 51.286L130.971 50.6955L132.368 50.0731L132.432 48.7002L131.067 48.6363L128.273 49.8812L120.176 50.1897L109.131 49.6722L98.2116 49.1605L85.2445 48.5529L73.6424 48.0093Z" fill="url(#paint0_linear_39_69270)"/>
<path d="M64.8666 45.5343L73.6424 48.0093L85.2445 48.5529L98.2116 49.1605L109.131 49.6722L120.176 50.1897L128.273 49.8812L131.067 48.6363L132.432 48.7002L132.368 50.0731L130.971 50.6955L128.891 51.286L126.161 51.1581L122.717 51.6846L118.065 51.4667L112.479 51.2049L107.02 50.9491L101.003 50.6672L95.5428 50.4113L90.64 50.1816L85.1802 49.9258L78.3232 50.2924L73.578 49.3821L69.5153 48.5038L64.7701 47.5936L63.4373 46.8432L64.8666 45.5343Z" fill="black"/>
<path d="M64.8666 45.5343L73.6424 48.0093L85.2445 48.5529L98.2116 49.1605L109.131 49.6722L120.176 50.1897L128.273 49.8812L131.067 48.6363L132.432 48.7002L132.368 50.0731L130.971 50.6955L128.891 51.286L126.161 51.1581L122.717 51.6846L118.065 51.4667L112.479 51.2049L107.02 50.9491L101.003 50.6672L95.5428 50.4113L90.64 50.1816L85.1802 49.9258L78.3232 50.2924L73.578 49.3821L69.5153 48.5038L64.7701 47.5936L63.4373 46.8432L64.8666 45.5343Z" fill="url(#paint1_linear_39_69270)"/>
</g>
<path fill-rule="evenodd" clip-rule="evenodd" d="M49.6493 37.254C49.6493 37.254 39.4201 39.6162 34.9634 44.1331C30.4808 48.6763 30.2208 53.5694 29.9242 59.152C29.789 61.6965 29.6462 64.3843 29.0925 67.2476C27.3535 76.2395 25.9515 90.49 25.9515 90.49C25.9515 90.49 25.0407 103.869 24.9222 112.455C24.8468 117.923 25.0712 122.168 25.2966 126.433C25.515 130.564 25.7343 134.712 25.6831 140.008L24.3966 167.465L23.6568 183.253C23.6568 183.253 22.2325 192.457 25.061 197.077C26.7266 199.798 28.6132 200.951 30.9986 202.409C31.6176 202.788 32.2702 203.187 32.9613 203.639C37.8683 206.849 41.8905 207.842 46.6039 209.005C48.6176 209.502 50.7573 210.03 53.1462 210.776C54.6408 211.242 56.0169 211.682 57.3185 212.098C63.2849 214.004 67.6851 215.41 74.7604 216.604C84.5784 218.262 90.6427 218.146 99.8993 217.968C100.814 217.95 101.759 217.932 102.742 217.915C104.316 217.888 105.775 217.875 107.157 217.862C113.793 217.801 118.663 217.757 126.075 216.257C134.771 214.498 147.618 209.011 147.618 209.011C147.618 209.011 154.637 206.412 158.144 203.313C168.22 194.411 163.165 169.152 163.165 169.152C163.165 169.152 167.116 145.065 168.443 129.499C169.514 116.932 169.955 97.2376 169.955 97.2376C169.935 93.7304 170.075 90.6071 170.207 87.6683C170.552 79.9791 170.84 73.5526 168.054 64.8159C167.896 64.3209 167.745 63.8414 167.598 63.3755C165.944 58.1411 164.833 54.6228 161.222 50.0492C154.634 41.7058 146.608 40.5199 137.168 39.1253C134.129 38.6763 130.944 38.2056 127.613 37.4676C110.938 33.7729 83.9341 35.4209 83.9341 35.4209C83.9341 35.4209 70.132 33.1313 61.4123 34.3656C56.73 35.0283 49.6493 37.254 49.6493 37.254ZM73.6424 48.0093L64.8666 45.5343L63.4373 46.8432L64.7701 47.5936L69.5153 48.5038L73.578 49.3821L78.3232 50.2924L85.1802 49.9258L90.64 50.1816L95.5428 50.4113L101.003 50.6672L107.02 50.9491L112.479 51.2049L118.065 51.4667L122.717 51.6846L126.161 51.1581L128.891 51.286L130.971 50.6955L132.368 50.0731L132.432 48.7002L131.067 48.6363L128.273 49.8812L120.176 50.1897L109.131 49.6722L98.2116 49.1605L85.2445 48.5529L73.6424 48.0093Z" fill="black"/>
<path fill-rule="evenodd" clip-rule="evenodd" d="M49.6493 37.254C49.6493 37.254 39.4201 39.6162 34.9634 44.1331C30.4808 48.6763 30.2208 53.5694 29.9242 59.152C29.789 61.6965 29.6462 64.3843 29.0925 67.2476C27.3535 76.2395 25.9515 90.49 25.9515 90.49C25.9515 90.49 25.0407 103.869 24.9222 112.455C24.8468 117.923 25.0712 122.168 25.2966 126.433C25.515 130.564 25.7343 134.712 25.6831 140.008L24.3966 167.465L23.6568 183.253C23.6568 183.253 22.2325 192.457 25.061 197.077C26.7266 199.798 28.6132 200.951 30.9986 202.409C31.6176 202.788 32.2702 203.187 32.9613 203.639C37.8683 206.849 41.8905 207.842 46.6039 209.005C48.6176 209.502 50.7573 210.03 53.1462 210.776C54.6408 211.242 56.0169 211.682 57.3185 212.098C63.2849 214.004 67.6851 215.41 74.7604 216.604C84.5784 218.262 90.6427 218.146 99.8993 217.968C100.814 217.95 101.759 217.932 102.742 217.915C104.316 217.888 105.775 217.875 107.157 217.862C113.793 217.801 118.663 217.757 126.075 216.257C134.771 214.498 147.618 209.011 147.618 209.011C147.618 209.011 154.637 206.412 158.144 203.313C168.22 194.411 163.165 169.152 163.165 169.152C163.165 169.152 167.116 145.065 168.443 129.499C169.514 116.932 169.955 97.2376 169.955 97.2376C169.935 93.7304 170.075 90.6071 170.207 87.6683C170.552 79.9791 170.84 73.5526 168.054 64.8159C167.896 64.3209 167.745 63.8414 167.598 63.3755C165.944 58.1411 164.833 54.6228 161.222 50.0492C154.634 41.7058 146.608 40.5199 137.168 39.1253C134.129 38.6763 130.944 38.2056 127.613 37.4676C110.938 33.7729 83.9341 35.4209 83.9341 35.4209C83.9341 35.4209 70.132 33.1313 61.4123 34.3656C56.73 35.0283 49.6493 37.254 49.6493 37.254ZM73.6424 48.0093L64.8666 45.5343L63.4373 46.8432L64.7701 47.5936L69.5153 48.5038L73.578 49.3821L78.3232 50.2924L85.1802 49.9258L90.64 50.1816L95.5428 50.4113L101.003 50.6672L107.02 50.9491L112.479 51.2049L118.065 51.4667L122.717 51.6846L126.161 51.1581L128.891 51.286L130.971 50.6955L132.368 50.0731L132.432 48.7002L131.067 48.6363L128.273 49.8812L120.176 50.1897L109.131 49.6722L98.2116 49.1605L85.2445 48.5529L73.6424 48.0093Z" fill="url(#paint2_linear_39_69270)"/>
<path d="M64.8666 45.5343L73.6424 48.0093L85.2445 48.5529L98.2116 49.1605L109.131 49.6722L120.176 50.1897L128.273 49.8812L131.067 48.6363L132.432 48.7002L132.368 50.0731L130.971 50.6955L128.891 51.286L126.161 51.1581L122.717 51.6846L118.065 51.4667L112.479 51.2049L107.02 50.9491L101.003 50.6672L95.5428 50.4113L90.64 50.1816L85.1802 49.9258L78.3232 50.2924L73.578 49.3821L69.5153 48.5038L64.7701 47.5936L63.4373 46.8432L64.8666 45.5343Z" fill="black"/>
<path d="M64.8666 45.5343L73.6424 48.0093L85.2445 48.5529L98.2116 49.1605L109.131 49.6722L120.176 50.1897L128.273 49.8812L131.067 48.6363L132.432 48.7002L132.368 50.0731L130.971 50.6955L128.891 51.286L126.161 51.1581L122.717 51.6846L118.065 51.4667L112.479 51.2049L107.02 50.9491L101.003 50.6672L95.5428 50.4113L90.64 50.1816L85.1802 49.9258L78.3232 50.2924L73.578 49.3821L69.5153 48.5038L64.7701 47.5936L63.4373 46.8432L64.8666 45.5343Z" fill="url(#paint3_linear_39_69270)"/>
<path d="M23.6568 183.253C23.6568 183.253 22.2325 192.457 25.061 197.077C26.7266 199.798 28.6132 200.951 30.9986 202.409C31.6176 202.788 32.2702 203.187 32.9613 203.639C37.8683 206.849 41.8905 207.842 46.6039 209.005C48.6176 209.502 50.7573 210.03 53.1462 210.776C54.6408 211.242 56.017 211.682 57.3185 212.098C63.2849 214.004 67.6851 215.41 74.7604 216.604C84.5784 218.262 90.6427 218.146 99.8993 217.968C100.814 217.951 101.759 217.932 102.742 217.915C104.316 217.888 105.775 217.875 107.157 217.862C113.793 217.801 118.663 217.757 126.075 216.257C134.771 214.498 147.618 209.011 147.618 209.011C147.618 209.011 154.637 206.412 158.144 203.313C168.22 194.411 163.165 169.152 163.165 169.152C163.165 169.152 167.116 145.065 168.443 129.499C169.514 116.932 169.955 97.2376 169.955 97.2376C169.935 93.7304 170.075 90.6071 170.207 87.6683C170.552 79.9791 170.84 73.5526 168.054 64.8159C167.896 64.3209 167.745 63.8414 167.598 63.3755C165.944 58.1411 164.833 54.6228 161.222 50.0492C154.634 41.7058 146.608 40.5199 137.168 39.1253C134.129 38.6763 130.944 38.2056 127.613 37.4676C110.938 33.7729 83.9341 35.4209 83.9341 35.4209C83.9341 35.4209 70.132 33.1313 61.4123 34.3656C56.73 35.0283 49.6493 37.254 49.6493 37.254C49.6493 37.254 39.4201 39.6162 34.9634 44.1331C30.4808 48.6763 30.2208 53.5694 29.9242 59.152C29.789 61.6965 29.6462 64.3843 29.0925 67.2476C27.3535 76.2395 25.9515 90.49 25.9515 90.49C25.9515 90.49 25.0407 103.869 24.9222 112.455C24.8468 117.923 25.0712 122.168 25.2966 126.433C25.515 130.564 25.7343 134.712 25.6831 140.008M23.6568 183.253C23.6568 183.253 24.1077 173.631 24.3966 167.465M23.6568 183.253L24.3966 167.465M24.3966 167.465C24.899 156.743 25.6831 140.008 25.6831 140.008M24.3966 167.465L25.6831 140.008M103.689 151.231L110.96 144.692L122.076 138.334L131.367 129.826L137.245 121.158L135.454 115.571L132.139 113.352L127.947 115.219M96.7351 153.656L89.9644 140.269L83.3036 133.765L71.5015 122.893L69.1253 115.215L73.3489 112.661L76.0756 115.54M94.785 95.7791C93.6132 94.9434 92.0233 95.7382 91.3083 96.9921C90.6313 98.1793 91.8299 100.456 91.8299 100.456C91.8299 100.456 94.0426 102.585 95.8283 102.707C97.9745 102.854 99.2867 101.787 100.734 100.185C102.742 97.965 103.256 95.5878 102.453 92.6988C101.476 89.1841 98.6071 88.1196 95.2031 86.8556C91.9497 85.6476 89.5594 85.1626 86.3309 86.4399C83.5212 87.5516 82.5786 89.3695 80.6137 91.6754C78.9753 93.5983 77.8033 94.6269 76.944 97.0069C75.9421 99.782 76.5902 104.558 76.5902 104.558C76.5902 104.558 78.8134 109.623 81.0138 112.332C83.9173 115.907 86.6547 116.771 90.2469 119.644C93.0867 121.915 93.9491 124.72 97.4968 125.487C98.801 125.769 99.5828 125.791 100.909 125.647C104.368 125.271 105.642 122.968 108.642 121.194C111.13 119.722 112.604 119.016 114.977 117.363C117.929 115.307 119.786 114.274 122.091 111.505C123.856 109.386 124.989 108.13 125.793 105.487C126.574 102.921 126.115 98.623 126.115 98.623L122.927 93.6581C122.927 93.6581 120.489 90.524 118.343 89.3158C116.424 88.2351 115.116 87.3081 112.948 87.6871C111.415 87.9551 110.494 88.4357 109.439 89.5865C108.122 91.0232 107.94 92.3759 107.849 94.3274C107.757 96.279 108.988 99.1963 108.988 99.1963C108.988 99.1963 110.751 101.504 112.304 101.416C113.636 101.34 114.705 100.756 115.131 99.4842C115.481 98.4353 115.673 96.8052 114.577 96.7065C114.528 96.7021 114.451 96.7006 114.451 96.7006C114.451 96.7006 113.966 96.4879 113.769 96.6686C113.572 96.8494 113.737 97.3551 113.737 97.3551L113.705 98.0415L112.99 98.6959L112.433 98.6698C112.433 98.6698 112.141 98.8885 111.92 98.9314C111.525 99.0085 110.943 98.6 110.943 98.6L110.292 97.8816L110.324 97.1952L109.706 95.7904L109.738 95.1039L109.803 93.7311L110.517 93.0766L110.582 91.7038L111.296 91.0493L112.34 89.9804L113.408 89.7725L115.322 90.1202L116.788 90.6188L118.804 91.4011L120.104 92.8379L121.373 94.9611L122.767 97.0903L123.942 98.5212L123.877 99.894L123.813 101.267L124.399 103.358L123.62 105.385L122.841 107.413L119.95 110.717L116.409 113.303L112.836 116.575L107.216 119.751L105.818 120.374L105.104 121.028L103.707 121.65L102.277 122.959L99.6086 124.21L98.1182 124.14L96.8175 122.704L94.3096 120.522L90.3434 117.585L84.951 113.204L82.3176 111.017L79.8128 106.084L78.5122 104.648L77.894 103.243L78.087 99.1243L78.866 97.097L79.6128 95.7561L81.0743 93.7608L83.186 92.4839L84.6475 90.4886L86.2022 89.1856L87.4618 88.8147L90.2038 88.6852C90.2038 88.6852 91.5204 88.1607 92.4089 88.1006C92.9413 88.0645 93.267 87.9968 93.7738 88.1645C94.3889 88.368 95.0946 89.1724 95.0946 89.1724L96.2818 90.3458L98.2971 91.1282L99.5977 92.565L100.216 93.9698L100.184 94.6562C100.184 94.6562 100.26 95.5111 100.119 96.0291C99.9626 96.6081 99.5292 96.7909 99.3725 97.3699C99.2324 97.8879 99.5963 98.2908 99.3082 98.7428C99.0096 99.2113 98.0366 99.3711 98.0366 99.3711C98.0366 99.3711 97.1271 99.6476 96.6394 99.9936C96.331 100.212 96.2699 100.494 95.9248 100.648C95.4368 100.865 94.5598 100.584 94.5598 100.584L93.9095 99.8657C93.9095 99.8657 93.0763 99.0206 93.2914 98.4608C93.4274 98.1068 94.006 97.8064 94.006 97.8064C94.006 97.8064 95.64 97.228 95.4353 96.4975C95.333 96.1323 95.0927 95.9986 94.785 95.7791ZM64.8666 45.5343L73.6424 48.0093L85.2445 48.5529L98.2116 49.1605L109.131 49.6722L120.176 50.1897L128.273 49.8812L131.067 48.6363L132.432 48.7002L132.368 50.0731L130.971 50.6955L128.891 51.286L126.161 51.1581L122.717 51.6846L118.065 51.4667L112.479 51.2049L107.02 50.9491L101.003 50.6672L95.5428 50.4113L90.64 50.1816L85.1802 49.9258L78.3232 50.2924L73.578 49.3821L69.5153 48.5038L64.7701 47.5936L63.4373 46.8432L64.8666 45.5343ZM98.9323 194.347L99.3505 185.424L101.134 176.564L104.375 168.461L111.46 160.538L118.671 152.621L127.704 149.604L137.098 153.484L139.57 159.103L139.281 165.281L133.01 167.739L128.648 161.343L129.951 160.028L131.902 162.184L133.203 163.62L135.25 163.716L136.68 162.407L136.841 158.975L135.636 155.479L132.288 153.947L129.034 153.106L126.178 152.972L121.987 154.84L118.414 158.112L114.966 161.39L108.653 168.661L104.546 176.724L102.08 185.552L101.662 194.475L99.6148 194.379L98.9323 194.347ZM90.2609 192.329L89.3352 182.891L88.4206 173.217L88.903 162.92L85.8154 153.145L78.7879 145.248L68.264 148.195L64.4978 155.586L64.0796 164.509L70.8079 166.888L77.1754 162.371L73.37 156.001L71.9407 157.31L73.2092 159.433L73.9528 160.844L71.6834 162.802L69.5716 164.078L66.906 162.578L67.0669 159.146L67.2277 155.713L68.071 152.313L70.2149 150.35L73.6595 149.823L77.1362 148.611L79.2448 150.085L82.403 152.985L83.6715 155.108L84.8435 159.291L85.3651 162.755L85.5652 173.083L86.4798 182.757L86.9983 188.973L86.8485 192.17L90.2609 192.329Z" stroke="white" stroke-width="2.83336"/>
<defs>
<filter id="filter0_f_39_69270" x="-10.7021" y="8.7738e-05" width="215.124" height="252.065" filterUnits="userSpaceOnUse" color-interpolation-filters="sRGB">
<feFlood flood-opacity="0" result="BackgroundImageFix"/>
<feBlend mode="normal" in="SourceGraphic" in2="BackgroundImageFix" result="shape"/>
<feGaussianBlur stdDeviation="17.0001" result="effect1_foregroundBlur_39_69270"/>
</filter>
<linearGradient id="paint0_linear_39_69270" x1="110.605" y1="-175.212" x2="92.1716" y2="218.193" gradientUnits="userSpaceOnUse">
<stop offset="0.360577" stop-color="#EB7B62"/>
<stop offset="1" stop-color="#FBE39C"/>
</linearGradient>
<linearGradient id="paint1_linear_39_69270" x1="110.605" y1="-175.212" x2="92.1716" y2="218.193" gradientUnits="userSpaceOnUse">
<stop offset="0.360577" stop-color="#EB7B62"/>
<stop offset="1" stop-color="#FBE39C"/>
</linearGradient>
<linearGradient id="paint2_linear_39_69270" x1="110.605" y1="-175.212" x2="92.1716" y2="218.193" gradientUnits="userSpaceOnUse">
<stop offset="0.360577" stop-color="#EB7B62"/>
<stop offset="1" stop-color="#FBE39C"/>
</linearGradient>
<linearGradient id="paint3_linear_39_69270" x1="110.605" y1="-175.212" x2="92.1716" y2="218.193" gradientUnits="userSpaceOnUse">
<stop offset="0.360577" stop-color="#EB7B62"/>
<stop offset="1" stop-color="#FBE39C"/>
</linearGradient>
</defs>
</svg>
