<svg width="490" height="232" viewBox="0 0 490 232" fill="none" xmlns="http://www.w3.org/2000/svg">
<path d="M17.0475 158.802C17.2751 163.243 18.8832 165.498 20.4104 166.16L20.4092 166.164C26.102 168.658 31.7947 171.155 37.4867 173.651C43.1796 176.148 48.8718 178.645 54.5641 181.139L54.5651 181.139C56.3633 181.927 58.8703 181.639 61.5049 179.905L68.6049 175.23L65.1658 183.004C62.4626 189.115 60.0091 195.509 57.8504 202.177L54.9522 211.131L53.0248 201.92C52.3338 198.617 50.6813 196.668 48.8906 196.004C40.983 193.142 33.0753 190.28 25.1677 187.417C25.2307 189.021 25.0325 191.106 24.2852 193.733C23.0679 198.553 20.9306 202.232 18.2826 204.504C15.6066 206.8 12.24 207.746 9.10084 206.481C6.02031 205.24 3.9358 202.179 3.0352 198.144C2.12951 194.086 2.32372 188.74 4.0053 182.178L4.01453 182.143L4.0247 182.108C6.41763 173.782 9.1588 165.746 12.2264 158.009L17.0475 158.802ZM12.6251 182.876C12.3653 183.185 12.0498 183.727 11.8301 184.473C11.0827 187.28 11.2575 189.244 11.7071 190.413C12.1392 191.537 12.7736 191.885 13.2635 191.96C13.8203 192.045 14.8467 191.871 16.1076 190.672C17.1995 189.633 18.3615 187.901 19.2881 185.288C17.0671 184.484 14.8461 183.68 12.6251 182.876Z" fill="#F6D6FF" stroke="#591D6A" stroke-width="5"/>
<path d="M45.5625 137.188C48.5644 135.604 52.1311 135.391 55.3114 137.729C57.734 139.484 60.1608 141.236 62.5882 142.989C65.0136 144.741 67.4407 146.495 69.8649 148.251L70.0038 148.347C70.6928 148.802 71.2631 148.831 73.1662 148.577L78.5965 147.85L75.5865 152.428C73.2475 155.985 71.0033 159.673 68.8554 163.482L67.3244 166.194L66.0096 168.727C63.959 172.674 62.0166 176.739 60.1948 180.933L57.5783 186.957L55.5268 180.718C54.8644 178.702 54.5081 178.267 53.7378 177.881L53.7347 177.886C48.6866 175.389 43.6266 172.892 38.5783 170.407L38.5784 170.406C38.1465 170.195 37.8911 170.183 37.6149 170.228C37.2193 170.292 36.6565 170.502 35.651 171.032L33.3006 172.27L32.2067 169.849C31.9475 169.275 31.9856 168.761 31.9877 168.713C31.9943 168.556 32.0147 168.434 32.0242 168.38C32.0447 168.265 32.0693 168.176 32.0774 168.147C32.0972 168.075 32.117 168.017 32.1234 167.998C32.1397 167.949 32.1574 167.899 32.1686 167.868C32.1858 167.82 32.2379 167.679 32.2682 167.596C32.348 167.377 32.4604 167.064 32.5911 166.672C32.8537 165.883 33.1888 164.782 33.4779 163.516C34.0744 160.902 34.3949 157.913 33.7667 155.528L32.2597 149.806L36.1173 151.983C36.4555 149.444 37.3483 146.898 38.5172 144.71C40.2063 141.521 42.6678 138.716 45.5625 137.188ZM47.3987 150.023C47.2825 150.024 47.0679 150.061 46.7686 150.213C46.1566 150.524 45.3855 151.231 44.7927 152.388L44.7895 152.394C44.1931 153.55 44.0048 154.707 44.0896 155.568C44.1315 155.994 44.2341 156.291 44.3315 156.471C44.378 156.557 44.419 156.61 44.4489 156.641L44.5 156.684L44.5067 156.688L44.5144 156.692C49.6396 159.571 54.7624 162.449 59.8855 165.315C60.3742 165.587 60.7018 165.644 61.0378 165.636C61.4709 165.625 62.0364 165.504 63.0463 165.189L64.7443 164.657L64.2668 162.915C63.6804 160.775 63.3928 160.228 62.6035 159.716L62.6036 159.715C60.1034 158.108 57.6025 156.504 55.1011 154.9C52.5965 153.293 50.0909 151.685 47.5853 150.074L47.5729 150.067L47.5615 150.058C47.5364 150.042 47.498 150.021 47.3987 150.023Z" fill="#F6D6FF" stroke="#591D6A" stroke-width="5"/>
<path d="M66.221 78.9733C69.1238 81.2366 72.0115 83.5439 74.8727 85.8715L74.8645 85.88C74.9184 85.9198 74.97 85.9591 75.0153 85.9974C75.4774 86.592 75.708 88.4672 75.1451 89.4935C74.7258 89.862 74.0231 90.2029 73.8053 90.2587L72.6406 90.501L72.3167 90.238C72.1928 90.2335 72.0517 90.2293 71.8948 90.2292C71.1488 90.2288 70.0678 90.2944 68.8051 90.5627C66.2948 91.0962 63.0777 92.4245 60.2607 95.6565C59.8927 96.0799 59.5276 96.5028 59.1649 96.9258C63.848 101.64 68.5309 106.357 73.2137 111.073C78.4356 116.332 83.6576 121.591 88.8793 126.847L88.8803 126.847C90.6063 128.585 93.0804 129.304 95.9 128.839L103.202 127.632L98.1275 133.019C94.0019 137.398 90.0577 142.044 86.3304 146.96L81.4745 153.364L81.8412 145.335C81.9836 142.215 80.9968 139.593 79.1843 137.941L62.8509 123.215C58.0879 118.921 53.3249 114.627 48.5635 110.333C48.3125 110.676 48.0599 111.02 47.8083 111.367C45.221 114.988 44.3846 118.805 44.2038 121.749C44.1342 122.882 44.1646 123.874 44.2249 124.656L44.6386 124.673L44.5401 127.171C44.5327 127.288 44.4782 127.632 44.4164 127.854C44.1943 128.338 43.0214 129.316 41.945 129.53L41.9434 129.57L40.8642 129.527L40.1569 128.727C37.7359 125.987 35.3288 123.203 32.9475 120.398L31.7596 118.998L32.7395 117.446C41.6345 103.349 51.7558 90.5971 62.8951 79.1968L64.4574 77.598L66.221 78.9733Z" fill="#F6D6FF" stroke="#591D6A" stroke-width="5"/>
<path d="M84.6556 58.797C92.8882 52.898 100.963 52.3561 107.971 55.4549C114.802 58.4751 120.276 64.7945 123.961 71.9849C127.659 79.2003 129.717 87.5976 129.475 95.1627C129.236 102.637 126.707 109.765 120.694 113.739C115.049 118.283 107.894 118.502 101.205 116.245C94.4874 113.979 87.9327 109.15 82.9842 103.059C78.0344 96.9673 74.5318 89.4142 74.2177 81.5857C73.8997 73.6593 76.8669 65.6679 84.4558 58.9562L84.552 58.871L84.6556 58.797ZM93.6767 64.6807C92.2365 64.4894 90.8923 64.7836 89.5825 65.7496C87.1221 67.8509 86.3918 71.4213 87.5729 76.4071C88.7489 81.3717 91.7059 87.0595 95.5063 92.2713C99.3016 97.4763 103.782 101.993 107.815 104.7C109.839 106.059 111.617 106.871 113.041 107.166C114.432 107.454 115.248 107.214 115.768 106.809L115.823 106.766L115.879 106.727C116.43 106.346 116.981 105.543 117.226 103.911C117.471 102.285 117.355 100.13 116.845 97.567C115.829 92.458 113.357 86.2694 110.07 80.5796C106.77 74.8668 102.793 69.9083 98.9135 67.0755C96.9813 65.6647 95.2138 64.8849 93.6767 64.6807Z" fill="#F6D6FF" stroke="#591D6A" stroke-width="5"/>
<path d="M209.995 13.3534C206.868 15.7976 205.43 18.7936 205.453 21.5186L205.46 21.7808L205.46 21.7818L207.217 62.8742L207.217 62.8908L207.218 62.9084C207.56 74.7057 198.825 81.4877 190.462 83.2314L190.448 83.2338L190.435 83.2362C186.236 84.0644 181.619 83.7846 177.648 81.8168C173.596 79.8087 170.41 76.1306 169.098 70.6146L169.09 70.579C167.208 62.117 165.325 53.6556 163.441 45.194C162.401 46.0223 161.038 46.8194 159.263 47.4392C155.21 48.9727 151.387 48.7693 148.334 47.1683C145.286 45.5696 143.241 42.6952 142.566 39.3791C141.179 32.5637 145.514 24.7291 156.348 20.7156L156.47 20.9139L156.398 20.7039C163.081 18.4258 169.863 16.4299 176.713 14.7239L176.497 14.6391L180.933 13.6795L185.845 12.467L185.65 12.6625C193.09 11.0873 200.6 9.83083 208.151 8.90225L217.098 7.80205L209.995 13.3534ZM179.555 18.7961C176.844 21.5233 175.805 24.5981 176.159 27.1951L176.197 27.4449L176.198 27.4479C178.619 41.5278 181.04 55.608 183.46 69.6996C183.822 71.7143 184.711 72.83 185.613 73.4222C186.553 74.0387 187.73 74.2344 188.88 74.0036C191.202 73.5232 193.582 71.3371 193.233 67.2423L191.26 45.6076C190.603 38.3969 189.945 31.1857 189.288 23.972L189.287 23.97C189.045 21.2908 187.363 18.9443 184.144 17.6686L181.654 16.6819L179.555 18.7961ZM159.844 29.0621C159.672 29.0176 159.343 28.9914 158.908 29.1346C155.13 30.5098 154.4 33.4936 155.184 35.6139C155.596 36.7256 156.443 37.6891 157.692 38.2226C158.704 38.6555 160.112 38.856 161.94 38.4616C161.242 35.3285 160.544 32.1953 159.844 29.0621Z" fill="#F6D6FF" stroke="#591D6A" stroke-width="5"/>
<path d="M235.225 6.31047C241.228 6.32885 245.802 7.6188 248.954 9.81838C252.156 12.053 253.809 15.1907 253.825 18.4723C253.858 25.0285 247.623 30.503 239.156 30.1754L239.155 30.1744C236.187 30.1429 234.119 29.3456 232.729 28.3464C232.041 27.8519 231.558 27.3353 231.229 26.9014C231.066 26.6853 230.941 26.4891 230.848 26.3263C230.802 26.2456 230.762 26.1705 230.728 26.1017C230.712 26.0683 230.694 26.03 230.676 25.9892C230.668 25.9708 230.654 25.9385 230.638 25.8987C230.631 25.882 230.615 25.8401 230.596 25.7867C230.588 25.7628 230.569 25.706 230.548 25.6323C230.538 25.5938 230.516 25.4968 230.504 25.439C230.488 25.3425 230.461 25.0592 230.461 24.8715L230.555 22.4837L232.945 22.4695C235.767 22.4524 237.638 20.3884 238.025 18.3453C238.214 17.3516 238.003 16.6114 237.652 16.1677C237.341 15.7756 236.62 15.2366 234.934 15.2376C231.823 15.3977 228.986 17.9617 226.748 23.2306C224.554 28.3944 223.316 35.373 223.031 42.4721C222.746 49.5637 223.422 56.527 224.88 61.6136C225.614 64.1714 226.499 66.0881 227.429 67.3064C228.348 68.5096 229.078 68.7587 229.591 68.7511L229.615 68.7501L229.64 68.7501C230.873 68.7558 232.108 68.7715 233.345 68.7976C234.222 61.5891 235.1 54.374 235.967 47.1684L235.967 47.1625C236.342 44.115 235.226 41.2699 232.923 39.4652L227.25 35.0203L234.456 34.9968C241.52 34.9735 248.58 35.2751 255.614 35.8776L263.658 36.5674L256.633 40.5445C253.713 42.1981 251.712 44.8734 251.035 47.6955L250.928 48.3363C249.879 54.546 248.83 60.7462 247.768 66.9577C247.244 70.103 248.139 73.2007 249.896 75.4192L253.583 80.0731L247.678 79.458C241.546 78.8192 235.378 78.485 229.197 78.4453L229.196 78.4443C221.962 78.6478 216.381 73.8188 212.743 67.3827C209.067 60.8793 207.045 52.2557 206.988 43.6304C206.93 35.0062 208.833 26.0999 213.314 19.1088C217.852 12.0278 225.001 6.99106 235.05 6.31627L235.137 6.30994L235.225 6.31047Z" fill="#F6D6FF" stroke="#591D6A" stroke-width="5"/>
<path d="M253.349 20.5883C255.305 13.6069 262.693 7.93863 274.32 9.11425L274.382 9.11667L274.493 9.13082C282.108 10.1156 289.679 11.4237 297.19 13.0659L303.8 14.5113L297.837 17.7113C295.376 19.0323 294.151 21.469 294.415 24.8426L294.585 26.9349C295.228 35.1396 295.541 43.3682 295.516 51.5973C302.003 44.3497 308.853 37.2531 316.051 30.3308C319.008 27.4801 319.49 24.979 318.635 23.1146L316.263 17.9438L321.676 19.6938C329.317 22.1649 336.854 24.9923 344.25 28.1861L351.983 31.5259L343.68 32.9457C339.465 33.6665 336.353 35.9016 334.787 38.79L334.786 38.7929C326.758 53.5619 318.729 68.3304 310.701 83.0994L310.702 83.1004C309.018 86.2151 308.736 89.623 309.66 92.4054L311.484 97.8947L306.236 95.4613C301.106 93.0831 295.864 90.9504 290.534 89.0745L284.397 86.9148L290.401 84.4094C293.478 83.1252 296.265 80.5845 297.804 77.4273C300.974 70.9108 304.145 64.3916 307.315 57.872C308.388 55.6647 309.461 53.457 310.535 51.2497C303.401 58.483 296.653 65.8965 290.303 73.4624L289.249 74.7187L287.676 74.2521C285.784 73.6901 283.886 73.1615 281.973 72.6539L280.072 72.1498L280.115 70.1832C280.317 60.908 280.087 51.6268 279.421 42.3725C278.646 44.9815 277.872 47.5908 277.097 50.2C275.097 56.9356 273.095 63.671 271.095 70.4039L271.095 70.4049C270.154 73.6086 270.614 76.8425 272.107 79.2622L275.224 84.3119L269.434 83.0142C264.95 82.0098 260.423 81.174 255.865 80.4948L249.284 79.5139L254.883 75.9184C257.641 74.1475 259.834 71.2633 260.69 68.0436C263.577 57.1856 266.403 46.5529 269.247 35.851C267.92 36.1885 266.305 36.3435 264.395 36.1179L264.395 36.1189C259.979 35.7069 256.638 33.6583 254.698 30.6405C252.789 27.6695 252.393 24.0005 253.349 20.5883ZM269.953 30.057C269.954 30.0561 269.955 30.0559 269.956 30.0551L269.957 30.0532C269.956 30.0543 269.954 30.0555 269.953 30.057ZM272.836 18.1194C268.97 17.6979 266.661 20.1941 266.289 22.9656C266.102 24.3618 266.427 25.7556 267.273 26.857C267.977 27.7725 269.158 28.6334 271.048 29.0769C271.963 25.6353 272.882 22.1803 273.807 18.7021L273.811 18.6846C273.809 18.6796 273.805 18.6699 273.798 18.6558C273.786 18.6334 273.765 18.5971 273.726 18.5503L273.662 18.4725L273.603 18.3891C273.592 18.3732 273.568 18.3398 273.47 18.291C273.359 18.2354 273.161 18.1666 272.836 18.1194Z" fill="#F6D6FF" stroke="#591D6A" stroke-width="5"/>
<path d="M382.226 52.971C385.775 53.1866 389.412 54.3446 392.754 56.1864L392.769 55.801L396.586 58.6862C401.241 62.2043 404.851 67.1505 406.152 72.3884C407.482 77.7413 406.369 83.4048 401.556 87.7142L401.52 87.747L401.481 87.7787C398.023 90.6365 393.428 92.2279 388.607 93.2314C383.763 94.2395 378.397 94.7087 373.246 95.1341C368.026 95.5652 363.041 95.9506 358.69 96.7636C355.914 97.2824 353.55 97.9509 351.64 98.827C354.39 100.891 357.086 103.036 359.727 105.262L359.733 105.267C361.666 106.906 363.127 107.852 364.501 108.459C365.864 109.06 367.271 109.385 369.19 109.622L376.393 110.511L370.171 114.246C366.361 116.534 362.586 118.857 358.855 121.215L357.227 122.243L355.817 120.932C349.24 114.817 342.232 109.262 334.873 104.293L332.637 102.783L334.313 100.669C336.203 98.2846 338.091 95.8996 339.981 93.5155C342.868 89.5193 347.136 86.9994 351.791 85.2658C356.464 83.5254 361.757 82.4962 366.878 81.6313C372.089 80.7512 377.064 80.0474 381.471 78.9653C385.866 77.8865 389.263 76.5206 391.466 74.5738C393.11 72.9148 393.507 71.2887 393.341 69.9361C393.165 68.4948 392.31 67.0545 390.931 65.9952L390.926 65.9911C388.278 63.9449 384.36 63.6934 381.401 67.1497L381.399 67.1525C380.495 68.2051 380.047 69.3502 380.035 70.3112C380.025 71.1688 380.349 72.097 381.488 72.9691L384.973 75.6379L380.9 77.2735L379.968 74.9537L380.898 77.2744L380.895 77.2753C380.893 77.2759 380.892 77.2773 380.89 77.278C380.886 77.2795 380.882 77.2808 380.878 77.2824C380.87 77.2857 380.859 77.2891 380.849 77.293C380.829 77.3008 380.804 77.3105 380.777 77.3205C380.722 77.3404 380.652 77.364 380.569 77.3904C380.402 77.4434 380.181 77.5069 379.91 77.5677C379.37 77.6891 378.624 77.8025 377.729 77.8003C375.914 77.7957 373.538 77.3108 371.11 75.5473L371.11 75.5463C367.929 73.2546 366.293 70.2397 366.069 67.0617C365.864 64.15 366.857 61.3401 368.504 59.0636L368.842 58.6146C372.237 54.2635 377.206 52.666 382.226 52.971Z" fill="#F6D6FF" stroke="#591D6A" stroke-width="5"/>
<path d="M410.312 85.8289C418.597 84.5478 426.715 86.7427 433.106 93.7553L433.719 94.4489L433.733 94.4642L433.746 94.4803C440.179 102.244 440.814 110.765 437.384 118.594C434.033 126.242 426.896 133.071 418.046 138.182C409.165 143.354 400.195 146.674 392.281 147.328C384.34 147.985 377.138 145.955 372.512 140.014L372.512 140.013C367.852 134.144 367.731 126.973 370.471 119.845C373.19 112.771 378.792 105.47 386.097 98.7084L386.1 98.7056C393.382 91.9877 401.893 87.1307 410.312 85.8289ZM426.543 100.169C424.767 98.063 421.074 97.2582 415.312 98.9191C409.717 100.532 403.021 104.283 396.526 109.737L396.526 109.738C389.923 115.281 384.872 120.907 381.966 125.633C380.509 128.004 379.67 130.023 379.375 131.604C379.081 133.172 379.363 134.021 379.735 134.494C380.117 134.976 380.946 135.495 382.684 135.638C384.407 135.779 386.709 135.514 389.511 134.767C395.096 133.275 402.156 130.002 409.521 125.234L409.522 125.233C416.78 120.537 422.248 115.236 425.217 110.479C428.274 105.58 428.22 102.17 426.543 100.169L426.543 100.169Z" fill="#F6D6FF" stroke="#591D6A" stroke-width="5"/>
<path d="M436.377 125.677C441.381 122.692 446.789 123.132 451.467 125.572C455.22 127.529 458.562 130.782 461.123 134.708L461.23 134.61L462.753 137.468C465.716 143.026 467.075 149.597 466.166 155.437C465.243 161.357 461.931 166.67 455.54 168.995L455.481 169.017L455.422 169.035C450.921 170.423 445.87 170.03 440.857 168.948C435.825 167.861 430.526 166.006 425.459 164.211C420.321 162.391 415.436 160.638 410.984 159.61C407.978 158.916 405.351 158.6 403.113 158.746C404.939 162.156 406.677 165.652 408.321 169.233L408.326 169.243L408.325 169.243C409.475 171.778 410.474 173.41 411.538 174.654C412.591 175.884 413.798 176.844 415.516 177.931L421.202 181.532L414.544 182.516C409.965 183.194 405.408 183.928 400.883 184.722L398.876 185.074L398.127 183.18C394.488 173.991 390.206 165.359 385.35 157.298L384.044 155.132L386.226 153.852C387.623 153.032 389.022 152.215 390.418 151.4C391.804 150.591 393.186 149.783 394.566 148.973C398.934 146.114 404.021 145.334 409.171 145.536C414.335 145.738 419.794 146.94 425.016 148.241C430.334 149.565 435.347 150.974 439.988 151.764C444.602 152.55 448.396 152.631 451.31 151.617C453.564 150.633 454.7 149.095 455.143 147.486C455.611 145.789 455.357 143.825 454.451 142.1L454.447 142.094L454.445 142.088C453.564 140.386 452.184 139.109 450.596 138.521C449.062 137.953 447.129 137.948 444.885 139.139L444.886 139.14C443.584 139.833 442.626 140.84 442.175 141.911C441.756 142.908 441.698 144.123 442.459 145.576L444.466 149.405L440.058 149.231C439.996 149.227 439.918 149.222 439.827 149.213C439.644 149.195 439.405 149.163 439.12 149.109C438.551 149 437.791 148.796 436.939 148.41C435.21 147.626 433.181 146.127 431.631 143.356L431.444 143.017C429.571 139.511 429.34 136.002 430.369 132.909C431.41 129.779 433.672 127.279 436.377 125.678L436.377 125.677Z" fill="#F6D6FF" stroke="#591D6A" stroke-width="5"/>
<path d="M436.126 174.16C444.954 170.821 454.988 169.2 463.755 171.365C472.716 173.578 480.125 179.707 483.371 191.228L483.384 191.275L483.395 191.321C486.804 205.468 482.125 214.592 474.534 217.149C467.883 219.39 460.321 215.956 457.554 208.223C457.118 212.48 455.614 216.219 453.242 219.326C449.18 224.647 442.81 227.82 435.764 228.751L432.822 229.14L432.826 229.038C426.917 229.42 421.35 228.409 416.738 225.837C411.305 222.807 407.392 217.716 405.856 210.731L405.857 210.73C403.736 201.674 406.581 194.206 412.385 188.198C418.078 182.305 426.622 177.784 436.12 174.162L436.126 174.16ZM441.87 194.294C438.377 193.399 433.739 193.61 428.824 195.156C423.885 196.716 419.984 198.984 417.531 201.416C415.057 203.868 414.335 206.157 414.762 208.01C415.169 209.766 416.794 211.462 420.128 212.492C423.422 213.511 427.962 213.706 433.108 212.723L433.11 212.723C438.234 211.749 442.451 209.662 445.115 207.156C447.77 204.659 448.674 202.001 448.044 199.553L448.044 199.552C447.391 197.038 445.329 195.18 441.87 194.294ZM465.806 187.267C461.915 186.412 456.958 186.398 451.389 187.314C453.764 190.13 455.6 193.731 456.712 198.097L456.715 198.106C456.793 198.419 456.865 198.731 456.934 199.04C457.041 198.678 457.161 198.339 457.291 198.023C457.653 197.136 458.073 196.455 458.42 195.979C458.594 195.74 458.748 195.552 458.869 195.415C458.93 195.346 458.98 195.292 459.016 195.254C459.03 195.239 459.046 195.223 459.048 195.221L459.047 195.223C459.046 195.223 459.044 195.225 459.043 195.226C459.04 195.229 459.032 195.238 459.02 195.251C459.015 195.257 458.981 195.293 458.94 195.341C458.924 195.361 458.871 195.426 458.81 195.514C458.776 195.564 458.695 195.696 458.65 195.78C458.574 195.936 458.409 196.463 458.365 196.84L463.294 196.352C464.226 200.209 467.478 201.581 470.355 200.973C471.796 200.668 473.017 199.879 473.753 198.744C474.465 197.646 474.879 195.984 474.282 193.599C473.476 190.644 470.755 188.355 465.806 187.267Z" fill="#F6D6FF" stroke="#591D6A" stroke-width="5"/>
</svg>
